<?xml version="1.0" encoding="UTF-8" standalone="no"?>
<!DOCTYPE svg PUBLIC "-//W3C//DTD SVG 1.1//EN"
 "http://www.w3.org/Graphics/SVG/1.1/DTD/svg11.dtd">
<!-- Generated by graphviz version 11.0.0 (20240428.1522)
 -->
<!-- Title: D Pages: 1 -->
<svg width="1333pt" height="1457pt"
 viewBox="0.00 0.00 1333.27 1456.92" xmlns="http://www.w3.org/2000/svg" xmlns:xlink="http://www.w3.org/1999/xlink">
<g id="graph0" class="graph" transform="scale(1 1) rotate(0) translate(4 1452.92)">
<title>D</title>
<polygon fill="white" stroke="none" points="-4,4 -4,-1452.92 1329.27,-1452.92 1329.27,4 -4,4"/>
<!-- Alice in Chains -->
<g id="node1" class="node">
<title>Alice in Chains</title>
<g id="a_node1"><a xlink:href="https://en.wikipedia.org/wiki/Alice_in_Chains" xlink:title="Alice in Chains">
<ellipse fill="#00ffb2" stroke="black" cx="573.95" cy="-475.81" rx="68.75" ry="18"/>
<text text-anchor="middle" x="573.95" y="-470.76" font-family="Times,serif" font-size="14.00">Alice in Chains</text>
</a>
</g>
</g>
<!-- Godsmack -->
<g id="node2" class="node">
<title>Godsmack</title>
<g id="a_node2"><a xlink:href="https://en.wikipedia.org/wiki/Godsmack" xlink:title="Godsmack">
<ellipse fill="#007fff" stroke="black" cx="404.81" cy="-350.29" rx="50.84" ry="18"/>
<text text-anchor="middle" x="404.81" y="-345.24" font-family="Times,serif" font-size="14.00" fill="#ffffff">Godsmack</text>
</a>
</g>
</g>
<!-- Alice in Chains&#45;&gt;Godsmack -->
<g id="edge1" class="edge">
<title>Alice in Chains&#45;&gt;Godsmack</title>
<path fill="none" stroke="black" d="M550.79,-458.62C521.02,-436.53 469.22,-398.08 436,-373.43"/>
<polygon fill="black" stroke="black" points="438.49,-370.92 428.38,-367.77 434.32,-376.54 438.49,-370.92"/>
</g>
<!-- System of a Down -->
<g id="node3" class="node">
<title>System of a Down</title>
<g id="a_node3"><a xlink:href="https://en.wikipedia.org/wiki/System_of_a_Down" xlink:title="System of a Down">
<ellipse fill="#0099ff" stroke="black" cx="693.06" cy="-627.96" rx="80.52" ry="18"/>
<text text-anchor="middle" x="693.06" y="-622.91" font-family="Times,serif" font-size="14.00" fill="#ffffff">System of a Down</text>
</a>
</g>
</g>
<!-- Alice in Chains&#45;&gt;System of a Down -->
<g id="edge2" class="edge">
<title>Alice in Chains&#45;&gt;System of a Down</title>
<path fill="none" stroke="black" d="M588.08,-493.86C608.86,-520.4 647.79,-570.13 671.96,-601"/>
<polygon fill="black" stroke="black" points="669.09,-603.03 678.01,-608.74 674.61,-598.71 669.09,-603.03"/>
</g>
<!-- Arcade Fire -->
<g id="node4" class="node">
<title>Arcade Fire</title>
<g id="a_node4"><a xlink:href="https://en.wikipedia.org/wiki/Arcade_Fire" xlink:title="Arcade Fire">
<ellipse fill="#1900ff" stroke="black" cx="370.91" cy="-917.59" rx="54.93" ry="18"/>
<text text-anchor="middle" x="370.91" y="-912.54" font-family="Times,serif" font-size="14.00" fill="#ffffff">Arcade Fire</text>
</a>
</g>
</g>
<!-- Arctic Monkeys -->
<g id="node5" class="node">
<title>Arctic Monkeys</title>
<g id="a_node5"><a xlink:href="https://en.wikipedia.org/wiki/Arctic_Monkeys" xlink:title="Arctic Monkeys">
<ellipse fill="#3200ff" stroke="black" cx="1181.29" cy="-1327.33" rx="71.31" ry="18"/>
<text text-anchor="middle" x="1181.29" y="-1322.28" font-family="Times,serif" font-size="14.00" fill="#ffffff">Arctic Monkeys</text>
</a>
</g>
</g>
<!-- Avenged Sevenfold -->
<g id="node6" class="node">
<title>Avenged Sevenfold</title>
<g id="a_node6"><a xlink:href="https://en.wikipedia.org/wiki/Avenged_Sevenfold" xlink:title="Avenged Sevenfold">
<ellipse fill="#0019ff" stroke="black" cx="855.35" cy="-251.15" rx="84.11" ry="18"/>
<text text-anchor="middle" x="855.35" y="-246.1" font-family="Times,serif" font-size="14.00" fill="#ffffff">Avenged Sevenfold</text>
</a>
</g>
</g>
<!-- Black Veil Brides -->
<g id="node13" class="node">
<title>Black Veil Brides</title>
<g id="a_node13"><a xlink:href="https://en.wikipedia.org/wiki/Black_Veil_Brides" xlink:title="Black Veil Brides">
<ellipse fill="#9900ff" stroke="black" cx="958.51" cy="-108.32" rx="75.92" ry="18"/>
<text text-anchor="middle" x="958.51" y="-103.27" font-family="Times,serif" font-size="14.00" fill="#ffffff">Black Veil Brides</text>
</a>
</g>
</g>
<!-- Avenged Sevenfold&#45;&gt;Black Veil Brides -->
<g id="edge26" class="edge">
<title>Avenged Sevenfold&#45;&gt;Black Veil Brides</title>
<path fill="none" stroke="black" d="M868.41,-233.06C886.24,-208.38 918.33,-163.95 939.01,-135.32"/>
<polygon fill="black" stroke="black" points="941.64,-137.65 944.66,-127.49 935.97,-133.55 941.64,-137.65"/>
</g>
<!-- Bad Brains -->
<g id="node7" class="node">
<title>Bad Brains</title>
<g id="a_node7"><a xlink:href="https://en.wikipedia.org/wiki/Bad_Brains" xlink:title="Bad Brains">
<ellipse fill="#65ff00" stroke="black" cx="458.75" cy="-572.29" rx="52.38" ry="18"/>
<text text-anchor="middle" x="458.75" y="-567.24" font-family="Times,serif" font-size="14.00">Bad Brains</text>
</a>
</g>
</g>
<!-- Bad Brains&#45;&gt;System of a Down -->
<g id="edge4" class="edge">
<title>Bad Brains&#45;&gt;System of a Down</title>
<path fill="none" stroke="black" d="M502.27,-582.63C537.11,-590.91 586.56,-602.66 626.39,-612.12"/>
<polygon fill="black" stroke="black" points="625.34,-615.47 635.87,-614.37 626.95,-608.66 625.34,-615.47"/>
</g>
<!-- Deftones -->
<g id="node8" class="node">
<title>Deftones</title>
<g id="a_node8"><a xlink:href="https://en.wikipedia.org/wiki/Deftones" xlink:title="Deftones">
<ellipse fill="#00ffcb" stroke="black" cx="251.58" cy="-514.63" rx="44.19" ry="18"/>
<text text-anchor="middle" x="251.58" y="-509.58" font-family="Times,serif" font-size="14.00">Deftones</text>
</a>
</g>
</g>
<!-- Bad Brains&#45;&gt;Deftones -->
<g id="edge3" class="edge">
<title>Bad Brains&#45;&gt;Deftones</title>
<path fill="none" stroke="black" d="M417.82,-560.9C383.73,-551.41 335.13,-537.89 299.28,-527.91"/>
<polygon fill="black" stroke="black" points="300.63,-524.65 290.06,-525.34 298.75,-531.39 300.63,-524.65"/>
</g>
<!-- Bauhaus -->
<g id="node9" class="node">
<title>Bauhaus</title>
<g id="a_node9"><a xlink:href="https://en.wikipedia.org/wiki/Bauhaus_(band)" xlink:title="Bauhaus">
<ellipse fill="#33ff00" stroke="black" cx="561.79" cy="-601.55" rx="42.65" ry="18"/>
<text text-anchor="middle" x="561.79" y="-596.5" font-family="Times,serif" font-size="14.00">Bauhaus</text>
</a>
</g>
</g>
<!-- Bauhaus&#45;&gt;System of a Down -->
<g id="edge5" class="edge">
<title>Bauhaus&#45;&gt;System of a Down</title>
<path fill="none" stroke="black" d="M600.82,-609.4C607.37,-610.72 614.34,-612.12 621.4,-613.54"/>
<polygon fill="black" stroke="black" points="620.56,-616.94 631.05,-615.48 621.94,-610.08 620.56,-616.94"/>
</g>
<!-- Belle and Sebastian -->
<g id="node10" class="node">
<title>Belle and Sebastian</title>
<g id="a_node10"><a xlink:href="https://en.wikipedia.org/wiki/Belle_and_Sebastian" xlink:title="Belle and Sebastian">
<ellipse fill="#0066ff" stroke="black" cx="1241.16" cy="-1221.55" rx="84.11" ry="18"/>
<text text-anchor="middle" x="1241.16" y="-1216.5" font-family="Times,serif" font-size="14.00" fill="#ffffff">Belle and Sebastian</text>
</a>
</g>
</g>
<!-- Black Sabbath -->
<g id="node11" class="node">
<title>Black Sabbath</title>
<g id="a_node11"><a xlink:href="https://en.wikipedia.org/wiki/Black_Sabbath" xlink:title="Black Sabbath">
<ellipse fill="#ffcc00" stroke="black" cx="654.51" cy="-407.52" rx="64.66" ry="18"/>
<text text-anchor="middle" x="654.51" y="-402.47" font-family="Times,serif" font-size="14.00">Black Sabbath</text>
</a>
</g>
</g>
<!-- Black Sabbath&#45;&gt;Alice in Chains -->
<g id="edge6" class="edge">
<title>Black Sabbath&#45;&gt;Alice in Chains</title>
<path fill="none" stroke="black" d="M634.18,-424.76C624.81,-432.7 613.51,-442.28 603.24,-450.99"/>
<polygon fill="black" stroke="black" points="601.07,-448.24 595.71,-457.37 605.6,-453.57 601.07,-448.24"/>
</g>
<!-- Black Sabbath&#45;&gt;System of a Down -->
<g id="edge8" class="edge">
<title>Black Sabbath&#45;&gt;System of a Down</title>
<path fill="none" stroke="black" d="M657.73,-425.94C664.41,-464.13 679.81,-552.21 687.9,-598.43"/>
<polygon fill="black" stroke="black" points="684.45,-599.02 689.62,-608.26 691.34,-597.81 684.45,-599.02"/>
</g>
<!-- Black Sabbath&#45;&gt;Avenged Sevenfold -->
<g id="edge23" class="edge">
<title>Black Sabbath&#45;&gt;Avenged Sevenfold</title>
<path fill="none" stroke="black" d="M676.77,-390.19C712.49,-362.38 782.74,-307.68 823.68,-275.81"/>
<polygon fill="black" stroke="black" points="825.75,-278.63 831.49,-269.73 821.45,-273.11 825.75,-278.63"/>
</g>
<!-- Soundgarden -->
<g id="node12" class="node">
<title>Soundgarden</title>
<g id="a_node12"><a xlink:href="https://en.wikipedia.org/wiki/Soundgarden" xlink:title="Soundgarden">
<ellipse fill="#00ff66" stroke="black" cx="584.44" cy="-282.29" rx="59.54" ry="18"/>
<text text-anchor="middle" x="584.44" y="-277.24" font-family="Times,serif" font-size="14.00">Soundgarden</text>
</a>
</g>
</g>
<!-- Black Sabbath&#45;&gt;Soundgarden -->
<g id="edge7" class="edge">
<title>Black Sabbath&#45;&gt;Soundgarden</title>
<path fill="none" stroke="black" d="M644.32,-389.31C632.68,-368.51 613.51,-334.24 600,-310.1"/>
<polygon fill="black" stroke="black" points="603.09,-308.46 595.15,-301.44 596.98,-311.87 603.09,-308.46"/>
</g>
<!-- Chvrches -->
<g id="node14" class="node">
<title>Chvrches</title>
<g id="a_node14"><a xlink:href="https://en.wikipedia.org/wiki/Chvrches" xlink:title="Chvrches">
<ellipse fill="#ff00e5" stroke="black" cx="636.98" cy="-902.84" rx="45.72" ry="18"/>
<text text-anchor="middle" x="636.98" y="-897.79" font-family="Times,serif" font-size="14.00">Chvrches</text>
</a>
</g>
</g>
<!-- David Bowie -->
<g id="node15" class="node">
<title>David Bowie</title>
<g id="a_node15"><a xlink:href="https://en.wikipedia.org/wiki/David_Bowie" xlink:title="David Bowie">
<ellipse fill="#ff0000" stroke="black" cx="1023.65" cy="-832.24" rx="60.05" ry="18"/>
<text text-anchor="middle" x="1023.65" y="-827.19" font-family="Times,serif" font-size="14.00">David Bowie</text>
</a>
</g>
</g>
<!-- Depeche Mode -->
<g id="node16" class="node">
<title>Depeche Mode</title>
<g id="a_node16"><a xlink:href="https://en.wikipedia.org/wiki/Depeche_Mode" xlink:title="Depeche Mode">
<ellipse fill="#00ff00" stroke="black" cx="834.64" cy="-808.44" rx="67.73" ry="18"/>
<text text-anchor="middle" x="834.64" y="-803.39" font-family="Times,serif" font-size="14.00">Depeche Mode</text>
</a>
</g>
</g>
<!-- David Bowie&#45;&gt;Depeche Mode -->
<g id="edge9" class="edge">
<title>David Bowie&#45;&gt;Depeche Mode</title>
<path fill="none" stroke="black" d="M967.71,-825.19C948.88,-822.82 927.58,-820.14 907.63,-817.63"/>
<polygon fill="black" stroke="black" points="908.25,-814.18 897.89,-816.41 907.38,-821.13 908.25,-814.18"/>
</g>
<!-- Depeche Mode&#45;&gt;System of a Down -->
<g id="edge12" class="edge">
<title>Depeche Mode&#45;&gt;System of a Down</title>
<path fill="none" stroke="black" d="M820.55,-790.48C795.59,-758.67 743.52,-692.28 714.23,-654.95"/>
<polygon fill="black" stroke="black" points="717.17,-653.02 708.24,-647.31 711.66,-657.34 717.17,-653.02"/>
</g>
<!-- Dead Kennedys -->
<g id="node17" class="node">
<title>Dead Kennedys</title>
<g id="a_node17"><a xlink:href="https://en.wikipedia.org/wiki/Dead_Kennedys" xlink:title="Dead Kennedys">
<ellipse fill="#33ff00" stroke="black" cx="808.01" cy="-583.59" rx="69.78" ry="18"/>
<text text-anchor="middle" x="808.01" y="-578.54" font-family="Times,serif" font-size="14.00">Dead Kennedys</text>
</a>
</g>
</g>
<!-- Dead Kennedys&#45;&gt;System of a Down -->
<g id="edge10" class="edge">
<title>Dead Kennedys&#45;&gt;System of a Down</title>
<path fill="none" stroke="black" d="M768.45,-598.86C760.86,-601.79 752.81,-604.9 744.9,-607.95"/>
<polygon fill="black" stroke="black" points="743.74,-604.65 735.67,-611.52 746.26,-611.18 743.74,-604.65"/>
</g>
<!-- Def Leppard -->
<g id="node18" class="node">
<title>Def Leppard</title>
<g id="a_node18"><a xlink:href="https://en.wikipedia.org/wiki/Def_Leppard" xlink:title="Def Leppard">
<ellipse fill="#65ff00" stroke="black" cx="890.55" cy="-466.82" rx="58" ry="18"/>
<text text-anchor="middle" x="890.55" y="-461.77" font-family="Times,serif" font-size="14.00">Def Leppard</text>
</a>
</g>
</g>
<!-- Def Leppard&#45;&gt;System of a Down -->
<g id="edge11" class="edge">
<title>Def Leppard&#45;&gt;System of a Down</title>
<path fill="none" stroke="black" d="M869.41,-484.07C834.33,-512.69 763.95,-570.12 723.52,-603.11"/>
<polygon fill="black" stroke="black" points="721.35,-600.36 715.81,-609.4 725.78,-605.79 721.35,-600.36"/>
</g>
<!-- Def Leppard&#45;&gt;Avenged Sevenfold -->
<g id="edge21" class="edge">
<title>Def Leppard&#45;&gt;Avenged Sevenfold</title>
<path fill="none" stroke="black" d="M887.55,-448.44C881.44,-411.03 867.53,-325.81 860.15,-280.59"/>
<polygon fill="black" stroke="black" points="863.65,-280.29 858.59,-270.99 856.74,-281.42 863.65,-280.29"/>
</g>
<!-- Faith No More -->
<g id="node19" class="node">
<title>Faith No More</title>
<g id="a_node19"><a xlink:href="https://en.wikipedia.org/wiki/Faith_No_More" xlink:title="Faith No More">
<ellipse fill="#00ff4c" stroke="black" cx="66.71" cy="-463.3" rx="66.71" ry="18"/>
<text text-anchor="middle" x="66.71" y="-458.25" font-family="Times,serif" font-size="14.00">Faith No More</text>
</a>
</g>
</g>
<!-- Faith No More&#45;&gt;Deftones -->
<g id="edge13" class="edge">
<title>Faith No More&#45;&gt;Deftones</title>
<path fill="none" stroke="black" d="M113.83,-476.39C141.38,-484.04 176.06,-493.67 203.74,-501.35"/>
<polygon fill="black" stroke="black" points="202.71,-504.7 213.28,-504 204.58,-497.95 202.71,-504.7"/>
</g>
<!-- Interpol -->
<g id="node20" class="node">
<title>Interpol</title>
<g id="a_node20"><a xlink:href="https://en.wikipedia.org/wiki/Interpol_(band)" xlink:title="Interpol">
<ellipse fill="#004cff" stroke="black" cx="604.48" cy="-1127.14" rx="40.09" ry="18"/>
<text text-anchor="middle" x="604.48" y="-1122.09" font-family="Times,serif" font-size="14.00" fill="#ffffff">Interpol</text>
</a>
</g>
</g>
<!-- Joy Division -->
<g id="node21" class="node">
<title>Joy Division</title>
<g id="a_node21"><a xlink:href="https://en.wikipedia.org/wiki/Joy_Division" xlink:title="Joy Division">
<ellipse fill="#65ff00" stroke="black" cx="660.27" cy="-1030.3" rx="58" ry="18"/>
<text text-anchor="middle" x="660.27" y="-1025.25" font-family="Times,serif" font-size="14.00">Joy Division</text>
</a>
</g>
</g>
<!-- My Bloody Valentine -->
<g id="node22" class="node">
<title>My Bloody Valentine</title>
<g id="a_node22"><a xlink:href="https://en.wikipedia.org/wiki/My_Bloody_Valentine_(band)" xlink:title="My Bloody Valentine">
<ellipse fill="#00ff4c" stroke="black" cx="668.05" cy="-1231.74" rx="90.76" ry="18"/>
<text text-anchor="middle" x="668.05" y="-1226.69" font-family="Times,serif" font-size="14.00">My Bloody Valentine</text>
</a>
</g>
</g>
<!-- Joy Division&#45;&gt;My Bloody Valentine -->
<g id="edge14" class="edge">
<title>Joy Division&#45;&gt;My Bloody Valentine</title>
<path fill="none" stroke="black" d="M660.97,-1048.53C662.32,-1083.35 665.26,-1159.6 666.9,-1201.94"/>
<polygon fill="black" stroke="black" points="663.4,-1202.04 667.28,-1211.9 670.39,-1201.77 663.4,-1202.04"/>
</g>
<!-- New Order -->
<g id="node23" class="node">
<title>New Order</title>
<g id="a_node23"><a xlink:href="https://en.wikipedia.org/wiki/New_Order" xlink:title="New Order">
<ellipse fill="#00ff00" stroke="black" cx="554.67" cy="-806.74" rx="52.38" ry="18"/>
<text text-anchor="middle" x="554.67" y="-801.69" font-family="Times,serif" font-size="14.00">New Order</text>
</a>
</g>
</g>
<!-- Joy Division&#45;&gt;New Order -->
<g id="edge15" class="edge">
<title>Joy Division&#45;&gt;New Order</title>
<path fill="none" stroke="black" d="M651.63,-1012.01C633.25,-973.1 590.17,-881.9 568.15,-835.28"/>
<polygon fill="black" stroke="black" points="571.36,-833.89 563.93,-826.34 565.03,-836.88 571.36,-833.89"/>
</g>
<!-- the Cure -->
<g id="node24" class="node">
<title>the Cure</title>
<g id="a_node24"><a xlink:href="https://en.wikipedia.org/wiki/The_Cure" xlink:title="the Cure">
<ellipse fill="#33ff00" stroke="black" cx="784.57" cy="-973.06" rx="42.65" ry="18"/>
<text text-anchor="middle" x="784.57" y="-968.01" font-family="Times,serif" font-size="14.00">the Cure</text>
</a>
</g>
</g>
<!-- Joy Division&#45;&gt;the Cure -->
<g id="edge16" class="edge">
<title>Joy Division&#45;&gt;the Cure</title>
<path fill="none" stroke="black" d="M693.25,-1015.11C709.22,-1007.76 728.5,-998.88 745.22,-991.18"/>
<polygon fill="black" stroke="black" points="746.26,-994.56 753.88,-987.19 743.33,-988.2 746.26,-994.56"/>
</g>
<!-- New Order&#45;&gt;System of a Down -->
<g id="edge35" class="edge">
<title>New Order&#45;&gt;System of a Down</title>
<path fill="none" stroke="black" d="M568.44,-788.95C592.83,-757.44 643.74,-691.67 672.37,-654.69"/>
<polygon fill="black" stroke="black" points="674.85,-657.2 678.21,-647.15 669.32,-652.91 674.85,-657.2"/>
</g>
<!-- New Order&#45;&gt;Arcade Fire -->
<g id="edge32" class="edge">
<title>New Order&#45;&gt;Arcade Fire</title>
<path fill="none" stroke="black" d="M528.34,-822.62C496.5,-841.83 442.75,-874.26 407.05,-895.79"/>
<polygon fill="black" stroke="black" points="405.54,-892.61 398.79,-900.78 409.16,-898.61 405.54,-892.61"/>
</g>
<!-- New Order&#45;&gt;Chvrches -->
<g id="edge33" class="edge">
<title>New Order&#45;&gt;Chvrches</title>
<path fill="none" stroke="black" d="M569.76,-824.37C582.37,-839.09 600.53,-860.28 614.79,-876.93"/>
<polygon fill="black" stroke="black" points="612.11,-879.18 621.27,-884.5 617.43,-874.62 612.11,-879.18"/>
</g>
<!-- LCD Soundsystem -->
<g id="node33" class="node">
<title>LCD Soundsystem</title>
<g id="a_node33"><a xlink:href="https://en.wikipedia.org/wiki/LCD_Soundsystem" xlink:title="LCD Soundsystem">
<ellipse fill="#3200ff" stroke="black" cx="368.37" cy="-766.14" rx="81.55" ry="18"/>
<text text-anchor="middle" x="368.37" y="-761.09" font-family="Times,serif" font-size="14.00" fill="#ffffff">LCD Soundsystem</text>
</a>
</g>
</g>
<!-- New Order&#45;&gt;LCD Soundsystem -->
<g id="edge34" class="edge">
<title>New Order&#45;&gt;LCD Soundsystem</title>
<path fill="none" stroke="black" d="M510.04,-797.02C488.58,-792.34 462.34,-786.62 438.31,-781.38"/>
<polygon fill="black" stroke="black" points="439.08,-777.96 428.56,-779.25 437.58,-784.8 439.08,-777.96"/>
</g>
<!-- The Smashing Pumpkins -->
<g id="node34" class="node">
<title>The Smashing Pumpkins</title>
<g id="a_node34"><a xlink:href="https://en.wikipedia.org/wiki/The_Smashing_Pumpkins" xlink:title="The Smashing Pumpkins">
<ellipse fill="#00ffcb" stroke="black" cx="575.57" cy="-947.95" rx="104.58" ry="18"/>
<text text-anchor="middle" x="575.57" y="-942.9" font-family="Times,serif" font-size="14.00">The Smashing Pumpkins</text>
</a>
</g>
</g>
<!-- New Order&#45;&gt;The Smashing Pumpkins -->
<g id="edge36" class="edge">
<title>New Order&#45;&gt;The Smashing Pumpkins</title>
<path fill="none" stroke="black" d="M557.4,-825.2C560.9,-848.88 567.03,-890.24 571.18,-918.34"/>
<polygon fill="black" stroke="black" points="567.69,-918.61 572.61,-927.99 574.61,-917.58 567.69,-918.61"/>
</g>
<!-- the Cure&#45;&gt;Chvrches -->
<g id="edge61" class="edge">
<title>the Cure&#45;&gt;Chvrches</title>
<path fill="none" stroke="black" d="M755.76,-959.35C733.3,-948.67 701.85,-933.7 676.95,-921.85"/>
<polygon fill="black" stroke="black" points="678.63,-918.78 668.1,-917.64 675.62,-925.1 678.63,-918.78"/>
</g>
<!-- the Cure&#45;&gt;Depeche Mode -->
<g id="edge62" class="edge">
<title>the Cure&#45;&gt;Depeche Mode</title>
<path fill="none" stroke="black" d="M790.12,-954.81C798.77,-926.38 815.53,-871.27 825.84,-837.38"/>
<polygon fill="black" stroke="black" points="829.06,-838.8 828.62,-828.22 822.37,-836.77 829.06,-838.8"/>
</g>
<!-- the Cure&#45;&gt;Interpol -->
<g id="edge63" class="edge">
<title>the Cure&#45;&gt;Interpol</title>
<path fill="none" stroke="black" d="M765.3,-989.55C733.26,-1016.96 668.93,-1072 632.09,-1103.53"/>
<polygon fill="black" stroke="black" points="629.82,-1100.86 624.5,-1110.02 634.37,-1106.18 629.82,-1100.86"/>
</g>
<!-- the Cure&#45;&gt;The Smashing Pumpkins -->
<g id="edge66" class="edge">
<title>the Cure&#45;&gt;The Smashing Pumpkins</title>
<path fill="none" stroke="black" d="M743.03,-968.07C722.9,-965.65 697.8,-962.63 673.21,-959.68"/>
<polygon fill="black" stroke="black" points="673.81,-956.23 663.47,-958.51 672.98,-963.18 673.81,-956.23"/>
</g>
<!-- Slowdive -->
<g id="node42" class="node">
<title>Slowdive</title>
<g id="a_node42"><a xlink:href="https://en.wikipedia.org/wiki/Slowdive" xlink:title="Slowdive">
<ellipse fill="#00ffe5" stroke="black" cx="850.68" cy="-1145.33" rx="45.72" ry="18"/>
<text text-anchor="middle" x="850.68" y="-1140.28" font-family="Times,serif" font-size="14.00">Slowdive</text>
</a>
</g>
</g>
<!-- the Cure&#45;&gt;Slowdive -->
<g id="edge64" class="edge">
<title>the Cure&#45;&gt;Slowdive</title>
<path fill="none" stroke="black" d="M791.52,-991.17C802.98,-1021.03 825.92,-1080.82 839.63,-1116.53"/>
<polygon fill="black" stroke="black" points="836.33,-1117.71 843.18,-1125.79 842.87,-1115.2 836.33,-1117.71"/>
</g>
<!-- The Killers -->
<g id="node48" class="node">
<title>The Killers</title>
<g id="a_node48"><a xlink:href="https://en.wikipedia.org/wiki/The_Killers" xlink:title="The Killers">
<ellipse fill="#1900ff" stroke="black" cx="1007.21" cy="-1063.61" rx="52.89" ry="18"/>
<text text-anchor="middle" x="1007.21" y="-1058.56" font-family="Times,serif" font-size="14.00" fill="#ffffff">The Killers</text>
</a>
</g>
</g>
<!-- the Cure&#45;&gt;The Killers -->
<g id="edge65" class="edge">
<title>the Cure&#45;&gt;The Killers</title>
<path fill="none" stroke="black" d="M815.53,-985.65C853.64,-1001.15 918.66,-1027.6 962.27,-1045.33"/>
<polygon fill="black" stroke="black" points="960.88,-1048.55 971.46,-1049.07 963.52,-1042.06 960.88,-1048.55"/>
</g>
<!-- Kraftwerk -->
<g id="node25" class="node">
<title>Kraftwerk</title>
<g id="a_node25"><a xlink:href="https://en.wikipedia.org/wiki/Kraftwerk" xlink:title="Kraftwerk">
<ellipse fill="#ffff00" stroke="black" cx="702.82" cy="-798.72" rx="48.79" ry="18"/>
<text text-anchor="middle" x="702.82" y="-793.67" font-family="Times,serif" font-size="14.00">Kraftwerk</text>
</a>
</g>
</g>
<!-- Kraftwerk&#45;&gt;Depeche Mode -->
<g id="edge17" class="edge">
<title>Kraftwerk&#45;&gt;Depeche Mode</title>
<path fill="none" stroke="black" d="M751.16,-802.29C753.36,-802.45 755.59,-802.61 757.84,-802.78"/>
<polygon fill="black" stroke="black" points="757.45,-806.26 767.68,-803.5 757.96,-799.28 757.45,-806.26"/>
</g>
<!-- Kraftwerk&#45;&gt;New Order -->
<g id="edge18" class="edge">
<title>Kraftwerk&#45;&gt;New Order</title>
<path fill="none" stroke="black" d="M654.31,-801.35C642.8,-801.97 630.35,-802.64 618.28,-803.3"/>
<polygon fill="black" stroke="black" points="618.17,-799.8 608.37,-803.83 618.55,-806.79 618.17,-799.8"/>
</g>
<!-- Daft Punk -->
<g id="node26" class="node">
<title>Daft Punk</title>
<g id="a_node26"><a xlink:href="https://en.wikipedia.org/wiki/Daft_Punk" xlink:title="Daft Punk">
<ellipse fill="#00b2ff" stroke="black" cx="683.11" cy="-95.57" rx="48.79" ry="18"/>
<text text-anchor="middle" x="683.11" y="-90.52" font-family="Times,serif" font-size="14.00" fill="#ffffff">Daft Punk</text>
</a>
</g>
</g>
<!-- Daft Punk&#45;&gt;Avenged Sevenfold -->
<g id="edge19" class="edge">
<title>Daft Punk&#45;&gt;Avenged Sevenfold</title>
<path fill="none" stroke="black" d="M701.87,-112.51C732.09,-139.81 791.74,-193.69 827.12,-225.65"/>
<polygon fill="black" stroke="black" points="824.66,-228.15 834.43,-232.25 829.36,-222.95 824.66,-228.15"/>
</g>
<!-- Iron Maiden -->
<g id="node27" class="node">
<title>Iron Maiden</title>
<g id="a_node27"><a xlink:href="https://en.wikipedia.org/wiki/Iron_Maiden" xlink:title="Iron Maiden">
<ellipse fill="#7fff00" stroke="black" cx="1195.84" cy="-18" rx="57.49" ry="18"/>
<text text-anchor="middle" x="1195.84" y="-12.95" font-family="Times,serif" font-size="14.00">Iron Maiden</text>
</a>
</g>
</g>
<!-- Metallica -->
<g id="node28" class="node">
<title>Metallica</title>
<g id="a_node28"><a xlink:href="https://en.wikipedia.org/wiki/Metallica" xlink:title="Metallica">
<ellipse fill="#00ff19" stroke="black" cx="1059.02" cy="-154.73" rx="46.23" ry="18"/>
<text text-anchor="middle" x="1059.02" y="-149.68" font-family="Times,serif" font-size="14.00">Metallica</text>
</a>
</g>
</g>
<!-- Iron Maiden&#45;&gt;Metallica -->
<g id="edge20" class="edge">
<title>Iron Maiden&#45;&gt;Metallica</title>
<path fill="none" stroke="black" d="M1178.23,-35.6C1154.29,-59.52 1111.34,-102.45 1084.06,-129.71"/>
<polygon fill="black" stroke="black" points="1081.8,-127.02 1077.2,-136.56 1086.75,-131.97 1081.8,-127.02"/>
</g>
<!-- Metallica&#45;&gt;Avenged Sevenfold -->
<g id="edge31" class="edge">
<title>Metallica&#45;&gt;Avenged Sevenfold</title>
<path fill="none" stroke="black" d="M1029.41,-168.75C995.75,-184.68 940.42,-210.88 901.18,-229.45"/>
<polygon fill="black" stroke="black" points="899.73,-226.27 892.19,-233.71 902.73,-232.59 899.73,-226.27"/>
</g>
<!-- Metallica&#45;&gt;Black Veil Brides -->
<g id="edge25" class="edge">
<title>Metallica&#45;&gt;Black Veil Brides</title>
<path fill="none" stroke="black" d="M1028.86,-140.81C1021.14,-137.24 1012.65,-133.32 1004.33,-129.48"/>
<polygon fill="black" stroke="black" points="1005.87,-126.34 995.32,-125.32 1002.94,-132.69 1005.87,-126.34"/>
</g>
<!-- Led Zeppelin -->
<g id="node29" class="node">
<title>Led Zeppelin</title>
<g id="a_node29"><a xlink:href="https://en.wikipedia.org/wiki/Led_Zeppelin" xlink:title="Led Zeppelin">
<ellipse fill="#ffcc00" stroke="black" cx="787.8" cy="-422.79" rx="60.56" ry="18"/>
<text text-anchor="middle" x="787.8" y="-417.74" font-family="Times,serif" font-size="14.00">Led Zeppelin</text>
</a>
</g>
</g>
<!-- Led Zeppelin&#45;&gt;System of a Down -->
<g id="edge30" class="edge">
<title>Led Zeppelin&#45;&gt;System of a Down</title>
<path fill="none" stroke="black" d="M779.39,-441C762.85,-476.82 725.98,-556.66 706.2,-599.5"/>
<polygon fill="black" stroke="black" points="703.1,-597.87 702.08,-608.42 709.45,-600.81 703.1,-597.87"/>
</g>
<!-- Led Zeppelin&#45;&gt;Avenged Sevenfold -->
<g id="edge22" class="edge">
<title>Led Zeppelin&#45;&gt;Avenged Sevenfold</title>
<path fill="none" stroke="black" d="M795.03,-404.42C806.76,-374.61 830.04,-315.47 843.99,-280"/>
<polygon fill="black" stroke="black" points="847.21,-281.38 847.62,-270.79 840.7,-278.82 847.21,-281.38"/>
</g>
<!-- Led Zeppelin&#45;&gt;Soundgarden -->
<g id="edge29" class="edge">
<title>Led Zeppelin&#45;&gt;Soundgarden</title>
<path fill="none" stroke="black" d="M763.67,-406.12C727.54,-381.16 659.22,-333.96 618.17,-305.59"/>
<polygon fill="black" stroke="black" points="620.31,-302.82 610.1,-300.02 616.33,-308.58 620.31,-302.82"/>
</g>
<!-- Rolling Stones -->
<g id="node30" class="node">
<title>Rolling Stones</title>
<g id="a_node30"><a xlink:href="https://en.wikipedia.org/wiki/The_Rolling_Stones" xlink:title="Rolling Stones">
<ellipse fill="#ff3200" stroke="black" cx="870.2" cy="-63.32" rx="65.68" ry="18"/>
<text text-anchor="middle" x="870.2" y="-58.27" font-family="Times,serif" font-size="14.00">Rolling Stones</text>
</a>
</g>
</g>
<!-- Rolling Stones&#45;&gt;Avenged Sevenfold -->
<g id="edge24" class="edge">
<title>Rolling Stones&#45;&gt;Avenged Sevenfold</title>
<path fill="none" stroke="black" d="M868.75,-81.67C866.18,-114.14 860.82,-182 857.71,-221.29"/>
<polygon fill="black" stroke="black" points="854.22,-220.97 856.93,-231.21 861.2,-221.52 854.22,-220.97"/>
</g>
<!-- Marilyn Manson -->
<g id="node31" class="node">
<title>Marilyn Manson</title>
<g id="a_node31"><a xlink:href="https://en.wikipedia.org/wiki/Marilyn_Manson" xlink:title="Marilyn Manson">
<ellipse fill="#00ffe5" stroke="black" cx="1067.98" cy="-255.12" rx="73.87" ry="18"/>
<text text-anchor="middle" x="1067.98" y="-250.07" font-family="Times,serif" font-size="14.00">Marilyn Manson</text>
</a>
</g>
</g>
<!-- Marilyn Manson&#45;&gt;Avenged Sevenfold -->
<g id="edge27" class="edge">
<title>Marilyn Manson&#45;&gt;Avenged Sevenfold</title>
<path fill="none" stroke="black" d="M993.91,-253.73C980.01,-253.48 965.29,-253.2 950.85,-252.93"/>
<polygon fill="black" stroke="black" points="950.92,-249.43 940.85,-252.75 950.79,-256.43 950.92,-249.43"/>
</g>
<!-- Kiss -->
<g id="node32" class="node">
<title>Kiss</title>
<g id="a_node32"><a xlink:href="https://en.wikipedia.org/wiki/Kiss_(band)" xlink:title="Kiss">
<ellipse fill="#b2ff00" stroke="black" cx="768.01" cy="-64.27" rx="27.3" ry="18"/>
<text text-anchor="middle" x="768.01" y="-59.22" font-family="Times,serif" font-size="14.00">Kiss</text>
</a>
</g>
</g>
<!-- Kiss&#45;&gt;Avenged Sevenfold -->
<g id="edge28" class="edge">
<title>Kiss&#45;&gt;Avenged Sevenfold</title>
<path fill="none" stroke="black" d="M776.23,-81.85C791.37,-114.24 823.78,-183.6 842.08,-222.75"/>
<polygon fill="black" stroke="black" points="838.79,-223.98 846.19,-231.56 845.13,-221.02 838.79,-223.98"/>
</g>
<!-- New York Dolls -->
<g id="node35" class="node">
<title>New York Dolls</title>
<g id="a_node35"><a xlink:href="https://en.wikipedia.org/wiki/New_York_Dolls" xlink:title="New York Dolls">
<ellipse fill="#e5ff00" stroke="black" cx="1054.51" cy="-1411.88" rx="70.8" ry="18"/>
<text text-anchor="middle" x="1054.51" y="-1406.83" font-family="Times,serif" font-size="14.00">New York Dolls</text>
</a>
</g>
</g>
<!-- The Smiths -->
<g id="node36" class="node">
<title>The Smiths</title>
<g id="a_node36"><a xlink:href="https://en.wikipedia.org/wiki/The_Smiths" xlink:title="The Smiths">
<ellipse fill="#00ff32" stroke="black" cx="1027.78" cy="-1193.37" rx="53.91" ry="18"/>
<text text-anchor="middle" x="1027.78" y="-1188.32" font-family="Times,serif" font-size="14.00">The Smiths</text>
</a>
</g>
</g>
<!-- New York Dolls&#45;&gt;The Smiths -->
<g id="edge37" class="edge">
<title>New York Dolls&#45;&gt;The Smiths</title>
<path fill="none" stroke="black" d="M1052.28,-1393.63C1047.66,-1355.87 1037.02,-1268.89 1031.4,-1222.99"/>
<polygon fill="black" stroke="black" points="1034.9,-1222.73 1030.21,-1213.23 1027.95,-1223.58 1034.9,-1222.73"/>
</g>
<!-- The Smiths&#45;&gt;Arctic Monkeys -->
<g id="edge54" class="edge">
<title>The Smiths&#45;&gt;Arctic Monkeys</title>
<path fill="none" stroke="black" d="M1047.22,-1210.34C1073.8,-1233.54 1121.69,-1275.32 1152.46,-1302.17"/>
<polygon fill="black" stroke="black" points="1150.06,-1304.72 1159.89,-1308.66 1154.66,-1299.44 1150.06,-1304.72"/>
</g>
<!-- The Smiths&#45;&gt;Belle and Sebastian -->
<g id="edge55" class="edge">
<title>The Smiths&#45;&gt;Belle and Sebastian</title>
<path fill="none" stroke="black" d="M1078.35,-1200.05C1101.96,-1203.17 1130.71,-1206.97 1157.43,-1210.5"/>
<polygon fill="black" stroke="black" points="1156.87,-1213.95 1167.24,-1211.79 1157.79,-1207.01 1156.87,-1213.95"/>
</g>
<!-- The Strokes -->
<g id="node49" class="node">
<title>The Strokes</title>
<g id="a_node49"><a xlink:href="https://en.wikipedia.org/wiki/The_Strokes" xlink:title="The Strokes">
<ellipse fill="#0033ff" stroke="black" cx="1087.74" cy="-1267.75" rx="55.45" ry="18"/>
<text text-anchor="middle" x="1087.74" y="-1262.7" font-family="Times,serif" font-size="14.00" fill="#ffffff">The Strokes</text>
</a>
</g>
</g>
<!-- The Smiths&#45;&gt;The Strokes -->
<g id="edge56" class="edge">
<title>The Smiths&#45;&gt;The Strokes</title>
<path fill="none" stroke="black" d="M1041.99,-1211C1049.26,-1220.01 1058.25,-1231.17 1066.33,-1241.2"/>
<polygon fill="black" stroke="black" points="1063.48,-1243.23 1072.48,-1248.82 1068.92,-1238.84 1063.48,-1243.23"/>
</g>
<!-- Orchestral Manoeuvres in the Dark -->
<g id="node37" class="node">
<title>Orchestral Manoeuvres in the Dark</title>
<g id="a_node37"><a xlink:href="https://en.wikipedia.org/wiki/Orchestral_Manoeuvres_in_the_Dark" xlink:title="Orchestral Manoeuvres in the Dark">
<ellipse fill="#33ff00" stroke="black" cx="1105.69" cy="-719.89" rx="142.45" ry="18"/>
<text text-anchor="middle" x="1105.69" y="-714.84" font-family="Times,serif" font-size="14.00">Orchestral Manoeuvres in the Dark</text>
</a>
</g>
</g>
<!-- Orchestral Manoeuvres in the Dark&#45;&gt;Depeche Mode -->
<g id="edge38" class="edge">
<title>Orchestral Manoeuvres in the Dark&#45;&gt;Depeche Mode</title>
<path fill="none" stroke="black" d="M1053.11,-737.07C1005.83,-752.51 936.68,-775.11 888.9,-790.72"/>
<polygon fill="black" stroke="black" points="888,-787.33 879.58,-793.76 890.17,-793.98 888,-787.33"/>
</g>
<!-- Public Enemy -->
<g id="node38" class="node">
<title>Public Enemy</title>
<g id="a_node38"><a xlink:href="https://en.wikipedia.org/wiki/Public_Enemy" xlink:title="Public Enemy">
<ellipse fill="#00ff7f" stroke="black" cx="546.76" cy="-1386.17" rx="63.63" ry="18"/>
<text text-anchor="middle" x="546.76" y="-1381.12" font-family="Times,serif" font-size="14.00">Public Enemy</text>
</a>
</g>
</g>
<!-- Public Enemy&#45;&gt;My Bloody Valentine -->
<g id="edge39" class="edge">
<title>Public Enemy&#45;&gt;My Bloody Valentine</title>
<path fill="none" stroke="black" d="M560.91,-1368.15C582.18,-1341.07 622.53,-1289.7 647.18,-1258.31"/>
<polygon fill="black" stroke="black" points="649.63,-1260.86 653.05,-1250.84 644.12,-1256.54 649.63,-1260.86"/>
</g>
<!-- Radiohead -->
<g id="node39" class="node">
<title>Radiohead</title>
<g id="a_node39"><a xlink:href="https://en.wikipedia.org/wiki/Radiohead" xlink:title="Radiohead">
<ellipse fill="#00ff7f" stroke="black" cx="817.25" cy="-1227.45" rx="50.33" ry="18"/>
<text text-anchor="middle" x="817.25" y="-1222.4" font-family="Times,serif" font-size="14.00">Radiohead</text>
</a>
</g>
</g>
<!-- Roxy Music -->
<g id="node40" class="node">
<title>Roxy Music</title>
<g id="a_node40"><a xlink:href="https://en.wikipedia.org/wiki/Roxy_Music" xlink:title="Roxy Music">
<ellipse fill="#ffff00" stroke="black" cx="898.12" cy="-701.64" rx="56.98" ry="18"/>
<text text-anchor="middle" x="898.12" y="-696.59" font-family="Times,serif" font-size="14.00">Roxy Music</text>
</a>
</g>
</g>
<!-- Roxy Music&#45;&gt;Depeche Mode -->
<g id="edge40" class="edge">
<title>Roxy Music&#45;&gt;Depeche Mode</title>
<path fill="none" stroke="black" d="M887.35,-719.76C877.46,-736.41 862.64,-761.33 851.23,-780.53"/>
<polygon fill="black" stroke="black" points="848.34,-778.55 846.23,-788.93 854.35,-782.13 848.34,-778.55"/>
</g>
<!-- Siouxsie and the Banshees -->
<g id="node41" class="node">
<title>Siouxsie and the Banshees</title>
<g id="a_node41"><a xlink:href="https://en.wikipedia.org/wiki/Siouxsie_and_the_Banshees" xlink:title="Siouxsie and the Banshees">
<ellipse fill="#65ff00" stroke="black" cx="836.09" cy="-1052.71" rx="109.7" ry="18"/>
<text text-anchor="middle" x="836.09" y="-1047.66" font-family="Times,serif" font-size="14.00">Siouxsie and the Banshees</text>
</a>
</g>
</g>
<!-- Siouxsie and the Banshees&#45;&gt;Depeche Mode -->
<g id="edge41" class="edge">
<title>Siouxsie and the Banshees&#45;&gt;Depeche Mode</title>
<path fill="none" stroke="black" d="M835.98,-1034.35C835.73,-992.34 835.12,-888.91 834.81,-837.89"/>
<polygon fill="black" stroke="black" points="838.32,-838.17 834.76,-828.2 831.32,-838.22 838.32,-838.17"/>
</g>
<!-- Siouxsie and the Banshees&#45;&gt;Joy Division -->
<g id="edge42" class="edge">
<title>Siouxsie and the Banshees&#45;&gt;Joy Division</title>
<path fill="none" stroke="black" d="M748.44,-1041.54C740.67,-1040.55 732.9,-1039.56 725.37,-1038.6"/>
<polygon fill="black" stroke="black" points="726.01,-1035.15 715.65,-1037.36 725.13,-1042.1 726.01,-1035.15"/>
</g>
<!-- Siouxsie and the Banshees&#45;&gt;My Bloody Valentine -->
<g id="edge43" class="edge">
<title>Siouxsie and the Banshees&#45;&gt;My Bloody Valentine</title>
<path fill="none" stroke="black" d="M819.05,-1070.86C789.16,-1102.71 727.16,-1168.77 692.62,-1205.56"/>
<polygon fill="black" stroke="black" points="690.21,-1203.02 685.92,-1212.71 695.31,-1207.81 690.21,-1203.02"/>
</g>
<!-- Siouxsie and the Banshees&#45;&gt;the Cure -->
<g id="edge47" class="edge">
<title>Siouxsie and the Banshees&#45;&gt;the Cure</title>
<path fill="none" stroke="black" d="M824.4,-1034.64C817.83,-1024.48 809.51,-1011.61 802.17,-1000.26"/>
<polygon fill="black" stroke="black" points="805.23,-998.55 796.86,-992.06 799.35,-1002.36 805.23,-998.55"/>
</g>
<!-- Siouxsie and the Banshees&#45;&gt;The Smiths -->
<g id="edge46" class="edge">
<title>Siouxsie and the Banshees&#45;&gt;The Smiths</title>
<path fill="none" stroke="black" d="M860.37,-1070.53C894.82,-1095.81 957.95,-1142.13 996.07,-1170.1"/>
<polygon fill="black" stroke="black" points="993.83,-1172.81 1003.97,-1175.9 997.98,-1167.16 993.83,-1172.81"/>
</g>
<!-- Siouxsie and the Banshees&#45;&gt;Radiohead -->
<g id="edge44" class="edge">
<title>Siouxsie and the Banshees&#45;&gt;Radiohead</title>
<path fill="none" stroke="black" d="M834.11,-1071.08C830.86,-1101.23 824.36,-1161.48 820.45,-1197.76"/>
<polygon fill="black" stroke="black" points="816.98,-1197.24 819.39,-1207.56 823.94,-1197.99 816.98,-1197.24"/>
</g>
<!-- Siouxsie and the Banshees&#45;&gt;Slowdive -->
<g id="edge45" class="edge">
<title>Siouxsie and the Banshees&#45;&gt;Slowdive</title>
<path fill="none" stroke="black" d="M838.97,-1071.01C840.99,-1083.82 843.73,-1101.22 846.05,-1115.96"/>
<polygon fill="black" stroke="black" points="842.56,-1116.24 847.57,-1125.58 849.47,-1115.15 842.56,-1116.24"/>
</g>
<!-- Sparks -->
<g id="node43" class="node">
<title>Sparks</title>
<g id="a_node43"><a xlink:href="https://en.wikipedia.org/wiki/Sparks_(band)" xlink:title="Sparks">
<ellipse fill="#ff9900" stroke="black" cx="349.33" cy="-842.7" rx="36" ry="18"/>
<text text-anchor="middle" x="349.33" y="-837.65" font-family="Times,serif" font-size="14.00">Sparks</text>
</a>
</g>
</g>
<!-- Sparks&#45;&gt;New Order -->
<g id="edge48" class="edge">
<title>Sparks&#45;&gt;New Order</title>
<path fill="none" stroke="black" d="M383.7,-836.68C414.43,-831.3 460.09,-823.3 496.5,-816.93"/>
<polygon fill="black" stroke="black" points="496.74,-820.44 505.99,-815.27 495.53,-813.54 496.74,-820.44"/>
</g>
<!-- The Birthday Party -->
<g id="node44" class="node">
<title>The Birthday Party</title>
<g id="a_node44"><a xlink:href="https://en.wikipedia.org/wiki/The_Birthday_Party_(band)" xlink:title="The Birthday Party">
<ellipse fill="#4cff00" stroke="black" cx="655.36" cy="-1430.92" rx="82.06" ry="18"/>
<text text-anchor="middle" x="655.36" y="-1425.87" font-family="Times,serif" font-size="14.00">The Birthday Party</text>
</a>
</g>
</g>
<!-- The Birthday Party&#45;&gt;My Bloody Valentine -->
<g id="edge49" class="edge">
<title>The Birthday Party&#45;&gt;My Bloody Valentine</title>
<path fill="none" stroke="black" d="M656.53,-1412.53C658.73,-1378 663.5,-1303.15 666.16,-1261.4"/>
<polygon fill="black" stroke="black" points="669.64,-1261.79 666.78,-1251.59 662.65,-1261.35 669.64,-1261.79"/>
</g>
<!-- The Cramps -->
<g id="node45" class="node">
<title>The Cramps</title>
<g id="a_node45"><a xlink:href="https://en.wikipedia.org/wiki/The_Cramps" xlink:title="The Cramps">
<ellipse fill="#65ff00" stroke="black" cx="865.41" cy="-1363.28" rx="56.98" ry="18"/>
<text text-anchor="middle" x="865.41" y="-1358.23" font-family="Times,serif" font-size="14.00">The Cramps</text>
</a>
</g>
</g>
<!-- The Cramps&#45;&gt;My Bloody Valentine -->
<g id="edge50" class="edge">
<title>The Cramps&#45;&gt;My Bloody Valentine</title>
<path fill="none" stroke="black" d="M840.81,-1346.89C806.42,-1323.97 743.75,-1282.2 704.09,-1255.76"/>
<polygon fill="black" stroke="black" points="706.05,-1252.87 695.79,-1250.23 702.17,-1258.69 706.05,-1252.87"/>
</g>
<!-- The Cramps&#45;&gt;The Smiths -->
<g id="edge51" class="edge">
<title>The Cramps&#45;&gt;The Smiths</title>
<path fill="none" stroke="black" d="M882.18,-1345.74C910.93,-1315.65 969.79,-1254.06 1003.2,-1219.1"/>
<polygon fill="black" stroke="black" points="1005.68,-1221.56 1010.06,-1211.92 1000.62,-1216.73 1005.68,-1221.56"/>
</g>
<!-- The Cult -->
<g id="node46" class="node">
<title>The Cult</title>
<g id="a_node46"><a xlink:href="https://en.wikipedia.org/wiki/The_Cult" xlink:title="The Cult">
<ellipse fill="#00ff32" stroke="black" cx="1247.31" cy="-1125.45" rx="43.67" ry="18"/>
<text text-anchor="middle" x="1247.31" y="-1120.4" font-family="Times,serif" font-size="14.00">The Cult</text>
</a>
</g>
</g>
<!-- The Cult&#45;&gt;The Smiths -->
<g id="edge52" class="edge">
<title>The Cult&#45;&gt;The Smiths</title>
<path fill="none" stroke="black" d="M1212.04,-1136.36C1175.96,-1147.53 1119.54,-1164.98 1078.63,-1177.64"/>
<polygon fill="black" stroke="black" points="1077.76,-1174.25 1069.25,-1180.54 1079.83,-1180.93 1077.76,-1174.25"/>
</g>
<!-- The Human League -->
<g id="node47" class="node">
<title>The Human League</title>
<g id="a_node47"><a xlink:href="https://en.wikipedia.org/wiki/The_Human_League" xlink:title="The Human League">
<ellipse fill="#4cff00" stroke="black" cx="1102.39" cy="-788.21" rx="85.13" ry="18"/>
<text text-anchor="middle" x="1102.39" y="-783.16" font-family="Times,serif" font-size="14.00">The Human League</text>
</a>
</g>
</g>
<!-- The Human League&#45;&gt;Depeche Mode -->
<g id="edge53" class="edge">
<title>The Human League&#45;&gt;Depeche Mode</title>
<path fill="none" stroke="black" d="M1021.69,-794.31C986.83,-796.94 946.23,-800.01 911.77,-802.61"/>
<polygon fill="black" stroke="black" points="911.56,-799.12 901.85,-803.36 912.08,-806.1 911.56,-799.12"/>
</g>
<!-- The Strokes&#45;&gt;Arctic Monkeys -->
<g id="edge57" class="edge">
<title>The Strokes&#45;&gt;Arctic Monkeys</title>
<path fill="none" stroke="black" d="M1113.31,-1284.03C1123.08,-1290.26 1134.42,-1297.48 1145.01,-1304.22"/>
<polygon fill="black" stroke="black" points="1142.86,-1307 1153.18,-1309.42 1146.62,-1301.1 1142.86,-1307"/>
</g>
<!-- The Strokes&#45;&gt;The Killers -->
<g id="edge58" class="edge">
<title>The Strokes&#45;&gt;The Killers</title>
<path fill="none" stroke="black" d="M1080.6,-1249.64C1066.57,-1214.08 1035.33,-1134.89 1018.49,-1092.2"/>
<polygon fill="black" stroke="black" points="1021.82,-1091.12 1014.89,-1083.1 1015.31,-1093.68 1021.82,-1091.12"/>
</g>
<!-- The Velvet Underground -->
<g id="node50" class="node">
<title>The Velvet Underground</title>
<g id="a_node50"><a xlink:href="https://en.wikipedia.org/wiki/The_Velvet_Underground" xlink:title="The Velvet Underground">
<ellipse fill="#ff6500" stroke="black" cx="913.6" cy="-893.15" rx="102.53" ry="18"/>
<text text-anchor="middle" x="913.6" y="-888.1" font-family="Times,serif" font-size="14.00">The Velvet Underground</text>
</a>
</g>
</g>
<!-- The Velvet Underground&#45;&gt;Depeche Mode -->
<g id="edge59" class="edge">
<title>The Velvet Underground&#45;&gt;Depeche Mode</title>
<path fill="none" stroke="black" d="M896.85,-875.18C885.79,-863.31 871.11,-847.56 858.78,-834.34"/>
<polygon fill="black" stroke="black" points="861.5,-832.12 852.12,-827.2 856.38,-836.9 861.5,-832.12"/>
</g>
<!-- The Velvet Underground&#45;&gt;the Cure -->
<g id="edge60" class="edge">
<title>The Velvet Underground&#45;&gt;the Cure</title>
<path fill="none" stroke="black" d="M884.96,-910.88C865.31,-923.05 839.15,-939.26 818.46,-952.07"/>
<polygon fill="black" stroke="black" points="816.74,-949.02 810.08,-957.26 820.42,-954.97 816.74,-949.02"/>
</g>
<!-- the bomb squad -->
<g id="node51" class="node">
<title>the bomb squad</title>
<g id="a_node51"><a xlink:href="https://en.wikipedia.org/wiki/The_Bomb_Squad" xlink:title="the bomb squad">
<ellipse fill="#00ff99" stroke="black" cx="469.4" cy="-1309.31" rx="70.29" ry="18"/>
<text text-anchor="middle" x="469.4" y="-1304.26" font-family="Times,serif" font-size="14.00">the bomb squad</text>
</a>
</g>
</g>
<!-- the bomb squad&#45;&gt;My Bloody Valentine -->
<g id="edge67" class="edge">
<title>the bomb squad&#45;&gt;My Bloody Valentine</title>
<path fill="none" stroke="black" d="M508.64,-1293.98C539.25,-1282.03 582.05,-1265.32 615.6,-1252.22"/>
<polygon fill="black" stroke="black" points="616.69,-1255.56 624.73,-1248.66 614.14,-1249.03 616.69,-1255.56"/>
</g>
</g>
</svg>
