<?xml version="1.0" encoding="UTF-8" standalone="no"?>
<!DOCTYPE svg PUBLIC "-//W3C//DTD SVG 1.1//EN"
 "http://www.w3.org/Graphics/SVG/1.1/DTD/svg11.dtd">
<!-- Generated by graphviz version 11.0.0 (20240428.1522)
 -->
<!-- Title: D Pages: 1 -->
<svg width="1901pt" height="1739pt"
 viewBox="0.00 0.00 1901.01 1739.18" xmlns="http://www.w3.org/2000/svg" xmlns:xlink="http://www.w3.org/1999/xlink">
<g id="graph0" class="graph" transform="scale(1 1) rotate(0) translate(4 1735.18)">
<title>D</title>
<polygon fill="white" stroke="none" points="-4,4 -4,-1735.18 1897.01,-1735.18 1897.01,4 -4,4"/>
<!-- Alice in Chains -->
<g id="node1" class="node">
<title>Alice in Chains</title>
<g id="a_node1"><a xlink:href="https://en.wikipedia.org/wiki/Alice_in_Chains" xlink:title="Alice in Chains">
<ellipse fill="#00ffb2" stroke="black" cx="827.93" cy="-309.49" rx="68.75" ry="18"/>
<text text-anchor="middle" x="827.93" y="-304.44" font-family="Times,serif" font-size="14.00" fill="#000000">Alice in Chains</text>
</a>
</g>
</g>
<!-- Godsmack -->
<g id="node2" class="node">
<title>Godsmack</title>
<g id="a_node2"><a xlink:href="https://en.wikipedia.org/wiki/Godsmack" xlink:title="Godsmack">
<ellipse fill="#007fff" stroke="black" cx="928.34" cy="-18" rx="50.84" ry="18"/>
<text text-anchor="middle" x="928.34" y="-12.95" font-family="Times,serif" font-size="14.00" fill="#ffffff">Godsmack</text>
</a>
</g>
</g>
<!-- Alice in Chains&#45;&gt;Godsmack -->
<g id="edge1" class="edge">
<title>Alice in Chains&#45;&gt;Godsmack</title>
<path fill="none" stroke="black" d="M834.21,-291.26C851.15,-242.08 897.88,-106.41 918.43,-46.77"/>
<polygon fill="black" stroke="black" points="921.62,-48.25 921.57,-37.66 915,-45.97 921.62,-48.25"/>
</g>
<!-- System of a Down -->
<g id="node3" class="node">
<title>System of a Down</title>
<g id="a_node3"><a xlink:href="https://en.wikipedia.org/wiki/System_of_a_Down" xlink:title="System of a Down">
<ellipse fill="#0099ff" stroke="black" cx="861.94" cy="-603.28" rx="80.52" ry="18"/>
<text text-anchor="middle" x="861.94" y="-598.23" font-family="Times,serif" font-size="14.00" fill="#ffffff">System of a Down</text>
</a>
</g>
</g>
<!-- Alice in Chains&#45;&gt;System of a Down -->
<g id="edge2" class="edge">
<title>Alice in Chains&#45;&gt;System of a Down</title>
<path fill="none" stroke="black" d="M830.05,-327.87C835.77,-377.23 851.49,-513.04 858.5,-573.53"/>
<polygon fill="black" stroke="black" points="855.01,-573.88 859.64,-583.41 861.97,-573.07 855.01,-573.88"/>
</g>
<!-- Arcade Fire -->
<g id="node4" class="node">
<title>Arcade Fire</title>
<g id="a_node4"><a xlink:href="https://en.wikipedia.org/wiki/Arcade_Fire" xlink:title="Arcade Fire">
<ellipse fill="#1900ff" stroke="black" cx="1049" cy="-799.6" rx="54.93" ry="18"/>
<text text-anchor="middle" x="1049" y="-794.55" font-family="Times,serif" font-size="14.00" fill="#ffffff">Arcade Fire</text>
</a>
</g>
</g>
<!-- Arctic Monkeys -->
<g id="node5" class="node">
<title>Arctic Monkeys</title>
<g id="a_node5"><a xlink:href="https://en.wikipedia.org/wiki/Arctic_Monkeys" xlink:title="Arctic Monkeys">
<ellipse fill="#3200ff" stroke="black" cx="1728.35" cy="-1378.47" rx="71.31" ry="18"/>
<text text-anchor="middle" x="1728.35" y="-1373.42" font-family="Times,serif" font-size="14.00" fill="#ffffff">Arctic Monkeys</text>
</a>
</g>
</g>
<!-- Avenged Sevenfold -->
<g id="node6" class="node">
<title>Avenged Sevenfold</title>
<g id="a_node6"><a xlink:href="https://en.wikipedia.org/wiki/Avenged_Sevenfold" xlink:title="Avenged Sevenfold">
<ellipse fill="#0019ff" stroke="black" cx="376.46" cy="-562.92" rx="84.11" ry="18"/>
<text text-anchor="middle" x="376.46" y="-557.87" font-family="Times,serif" font-size="14.00" fill="#ffffff">Avenged Sevenfold</text>
</a>
</g>
</g>
<!-- Black Veil Brides -->
<g id="node7" class="node">
<title>Black Veil Brides</title>
<g id="a_node7"><a xlink:href="https://en.wikipedia.org/wiki/Black_Veil_Brides" xlink:title="Black Veil Brides">
<ellipse fill="#9900ff" stroke="black" cx="131.63" cy="-479.08" rx="75.92" ry="18"/>
<text text-anchor="middle" x="131.63" y="-474.03" font-family="Times,serif" font-size="14.00" fill="#ffffff">Black Veil Brides</text>
</a>
</g>
</g>
<!-- Avenged Sevenfold&#45;&gt;Black Veil Brides -->
<g id="edge3" class="edge">
<title>Avenged Sevenfold&#45;&gt;Black Veil Brides</title>
<path fill="none" stroke="black" d="M330.99,-547.34C290.06,-533.33 229.85,-512.71 186.31,-497.81"/>
<polygon fill="black" stroke="black" points="187.65,-494.57 177.06,-494.64 185.38,-501.19 187.65,-494.57"/>
</g>
<!-- Bad Brains -->
<g id="node8" class="node">
<title>Bad Brains</title>
<g id="a_node8"><a xlink:href="https://en.wikipedia.org/wiki/Bad_Brains" xlink:title="Bad Brains">
<ellipse fill="#65ff00" stroke="black" cx="592.71" cy="-704.22" rx="52.38" ry="18"/>
<text text-anchor="middle" x="592.71" y="-699.17" font-family="Times,serif" font-size="14.00" fill="#000000">Bad Brains</text>
</a>
</g>
</g>
<!-- Bad Brains&#45;&gt;System of a Down -->
<g id="edge5" class="edge">
<title>Bad Brains&#45;&gt;System of a Down</title>
<path fill="none" stroke="black" d="M628.74,-690.71C675.12,-673.32 756.07,-642.97 809.34,-623"/>
<polygon fill="black" stroke="black" points="810.38,-626.35 818.51,-619.56 807.92,-619.8 810.38,-626.35"/>
</g>
<!-- Deftones -->
<g id="node9" class="node">
<title>Deftones</title>
<g id="a_node9"><a xlink:href="https://en.wikipedia.org/wiki/Deftones" xlink:title="Deftones">
<ellipse fill="#00ffcb" stroke="black" cx="498.59" cy="-1024.57" rx="44.19" ry="18"/>
<text text-anchor="middle" x="498.59" y="-1019.52" font-family="Times,serif" font-size="14.00" fill="#000000">Deftones</text>
</a>
</g>
</g>
<!-- Bad Brains&#45;&gt;Deftones -->
<g id="edge4" class="edge">
<title>Bad Brains&#45;&gt;Deftones</title>
<path fill="none" stroke="black" d="M587.38,-722.36C571.79,-775.43 526.17,-930.7 507.11,-995.57"/>
<polygon fill="black" stroke="black" points="503.87,-994.2 504.4,-1004.78 510.58,-996.17 503.87,-994.2"/>
</g>
<!-- Bauhaus -->
<g id="node10" class="node">
<title>Bauhaus</title>
<g id="a_node10"><a xlink:href="https://en.wikipedia.org/wiki/Bauhaus_(band)" xlink:title="Bauhaus">
<ellipse fill="#33ff00" stroke="black" cx="1083.07" cy="-377.57" rx="42.65" ry="18"/>
<text text-anchor="middle" x="1083.07" y="-372.52" font-family="Times,serif" font-size="14.00" fill="#000000">Bauhaus</text>
</a>
</g>
</g>
<!-- Bauhaus&#45;&gt;System of a Down -->
<g id="edge6" class="edge">
<title>Bauhaus&#45;&gt;System of a Down</title>
<path fill="none" stroke="black" d="M1066.45,-394.54C1028.06,-433.72 933.02,-530.73 887.3,-577.4"/>
<polygon fill="black" stroke="black" points="884.92,-574.82 880.43,-584.42 889.92,-579.72 884.92,-574.82"/>
</g>
<!-- Belle and Sebastian -->
<g id="node11" class="node">
<title>Belle and Sebastian</title>
<g id="a_node11"><a xlink:href="https://en.wikipedia.org/wiki/Belle_and_Sebastian" xlink:title="Belle and Sebastian">
<ellipse fill="#0066ff" stroke="black" cx="1808.9" cy="-1059.05" rx="84.11" ry="18"/>
<text text-anchor="middle" x="1808.9" y="-1054" font-family="Times,serif" font-size="14.00" fill="#ffffff">Belle and Sebastian</text>
</a>
</g>
</g>
<!-- Black Sabbath -->
<g id="node12" class="node">
<title>Black Sabbath</title>
<g id="a_node12"><a xlink:href="https://en.wikipedia.org/wiki/Black_Sabbath" xlink:title="Black Sabbath">
<ellipse fill="#ffcc00" stroke="black" cx="671.45" cy="-393.27" rx="64.66" ry="18"/>
<text text-anchor="middle" x="671.45" y="-388.22" font-family="Times,serif" font-size="14.00" fill="#000000">Black Sabbath</text>
</a>
</g>
</g>
<!-- Black Sabbath&#45;&gt;Alice in Chains -->
<g id="edge7" class="edge">
<title>Black Sabbath&#45;&gt;Alice in Chains</title>
<path fill="none" stroke="black" d="M701.62,-377.12C725.95,-364.09 760.41,-345.64 787.19,-331.3"/>
<polygon fill="black" stroke="black" points="788.55,-334.54 795.71,-326.74 785.24,-328.37 788.55,-334.54"/>
</g>
<!-- Black Sabbath&#45;&gt;System of a Down -->
<g id="edge9" class="edge">
<title>Black Sabbath&#45;&gt;System of a Down</title>
<path fill="none" stroke="black" d="M687.69,-411.18C721.36,-448.3 798.9,-533.78 838.19,-577.1"/>
<polygon fill="black" stroke="black" points="835.41,-579.25 844.73,-584.3 840.6,-574.54 835.41,-579.25"/>
</g>
<!-- Black Sabbath&#45;&gt;Avenged Sevenfold -->
<g id="edge10" class="edge">
<title>Black Sabbath&#45;&gt;Avenged Sevenfold</title>
<path fill="none" stroke="black" d="M642.62,-409.85C589.59,-440.35 476.46,-505.41 416.19,-540.07"/>
<polygon fill="black" stroke="black" points="414.51,-537 407.59,-545.02 418,-543.06 414.51,-537"/>
</g>
<!-- Soundgarden -->
<g id="node13" class="node">
<title>Soundgarden</title>
<g id="a_node13"><a xlink:href="https://en.wikipedia.org/wiki/Soundgarden" xlink:title="Soundgarden">
<ellipse fill="#00ff66" stroke="black" cx="598.75" cy="-131.07" rx="59.54" ry="18"/>
<text text-anchor="middle" x="598.75" y="-126.02" font-family="Times,serif" font-size="14.00" fill="#000000">Soundgarden</text>
</a>
</g>
</g>
<!-- Black Sabbath&#45;&gt;Soundgarden -->
<g id="edge8" class="edge">
<title>Black Sabbath&#45;&gt;Soundgarden</title>
<path fill="none" stroke="black" d="M666.33,-374.84C653.9,-329.98 621.99,-214.88 606.89,-160.44"/>
<polygon fill="black" stroke="black" points="610.31,-159.65 604.26,-150.95 603.56,-161.52 610.31,-159.65"/>
</g>
<!-- Chvrches -->
<g id="node14" class="node">
<title>Chvrches</title>
<g id="a_node14"><a xlink:href="https://en.wikipedia.org/wiki/Chvrches" xlink:title="Chvrches">
<ellipse fill="#ff00e5" stroke="black" cx="1345.21" cy="-655.09" rx="45.72" ry="18"/>
<text text-anchor="middle" x="1345.21" y="-650.04" font-family="Times,serif" font-size="14.00" fill="#000000">Chvrches</text>
</a>
</g>
</g>
<!-- Coldplay -->
<g id="node15" class="node">
<title>Coldplay</title>
<g id="a_node15"><a xlink:href="https://en.wikipedia.org/wiki/Coldplay" xlink:title="Coldplay">
<ellipse fill="#004cff" stroke="black" cx="698.25" cy="-1247.03" rx="44.7" ry="18"/>
<text text-anchor="middle" x="698.25" y="-1241.98" font-family="Times,serif" font-size="14.00" fill="#ffffff">Coldplay</text>
</a>
</g>
</g>
<!-- Daft Punk -->
<g id="node16" class="node">
<title>Daft Punk</title>
<g id="a_node16"><a xlink:href="https://en.wikipedia.org/wiki/Daft_Punk" xlink:title="Daft Punk">
<ellipse fill="#00b2ff" stroke="black" cx="203.9" cy="-391.82" rx="48.79" ry="18"/>
<text text-anchor="middle" x="203.9" y="-386.77" font-family="Times,serif" font-size="14.00" fill="#ffffff">Daft Punk</text>
</a>
</g>
</g>
<!-- Daft Punk&#45;&gt;Avenged Sevenfold -->
<g id="edge11" class="edge">
<title>Daft Punk&#45;&gt;Avenged Sevenfold</title>
<path fill="none" stroke="black" d="M221.08,-408.85C251.39,-438.9 314.52,-501.49 350.28,-536.96"/>
<polygon fill="black" stroke="black" points="347.68,-539.31 357.25,-543.86 352.61,-534.34 347.68,-539.31"/>
</g>
<!-- David Bowie -->
<g id="node17" class="node">
<title>David Bowie</title>
<g id="a_node17"><a xlink:href="https://en.wikipedia.org/wiki/David_Bowie" xlink:title="David Bowie">
<ellipse fill="#ff0000" stroke="black" cx="757.2" cy="-851.47" rx="60.05" ry="18"/>
<text text-anchor="middle" x="757.2" y="-846.42" font-family="Times,serif" font-size="14.00" fill="#000000">David Bowie</text>
</a>
</g>
</g>
<!-- Depeche Mode -->
<g id="node18" class="node">
<title>Depeche Mode</title>
<g id="a_node18"><a xlink:href="https://en.wikipedia.org/wiki/Depeche_Mode" xlink:title="Depeche Mode">
<ellipse fill="#00ff00" stroke="black" cx="888.47" cy="-954.03" rx="67.73" ry="18"/>
<text text-anchor="middle" x="888.47" y="-948.98" font-family="Times,serif" font-size="14.00" fill="#000000">Depeche Mode</text>
</a>
</g>
</g>
<!-- David Bowie&#45;&gt;Depeche Mode -->
<g id="edge12" class="edge">
<title>David Bowie&#45;&gt;Depeche Mode</title>
<path fill="none" stroke="black" d="M779.17,-868.63C800.66,-885.42 833.57,-911.14 857.67,-929.96"/>
<polygon fill="black" stroke="black" points="855.2,-932.48 865.24,-935.87 859.51,-926.96 855.2,-932.48"/>
</g>
<!-- Depeche Mode&#45;&gt;System of a Down -->
<g id="edge16" class="edge">
<title>Depeche Mode&#45;&gt;System of a Down</title>
<path fill="none" stroke="black" d="M887.08,-935.66C882.75,-878.37 869.45,-702.55 864.15,-632.51"/>
<polygon fill="black" stroke="black" points="867.68,-632.68 863.43,-622.97 860.7,-633.21 867.68,-632.68"/>
</g>
<!-- Depeche Mode&#45;&gt;Arcade Fire -->
<g id="edge17" class="edge">
<title>Depeche Mode&#45;&gt;Arcade Fire</title>
<path fill="none" stroke="black" d="M906.89,-936.31C935.46,-908.82 990.58,-855.8 1023.14,-824.48"/>
<polygon fill="black" stroke="black" points="1025.42,-827.14 1030.2,-817.68 1020.57,-822.09 1025.42,-827.14"/>
</g>
<!-- Depeche Mode&#45;&gt;Deftones -->
<g id="edge19" class="edge">
<title>Depeche Mode&#45;&gt;Deftones</title>
<path fill="none" stroke="black" d="M831.78,-964.29C756.2,-977.96 623.51,-1001.97 550.45,-1015.19"/>
<polygon fill="black" stroke="black" points="549.97,-1011.72 540.75,-1016.94 551.21,-1018.61 549.97,-1011.72"/>
</g>
<!-- Depeche Mode&#45;&gt;Coldplay -->
<g id="edge18" class="edge">
<title>Depeche Mode&#45;&gt;Coldplay</title>
<path fill="none" stroke="black" d="M876.86,-971.92C844.68,-1021.48 754.22,-1160.82 715.83,-1219.95"/>
<polygon fill="black" stroke="black" points="713.04,-1217.82 710.54,-1228.11 718.92,-1221.63 713.04,-1217.82"/>
</g>
<!-- Linkin Park -->
<g id="node21" class="node">
<title>Linkin Park</title>
<g id="a_node21"><a xlink:href="https://en.wikipedia.org/wiki/Linkin_Park" xlink:title="Linkin Park">
<ellipse fill="#0066ff" stroke="black" cx="663.16" cy="-981.19" rx="54.93" ry="18"/>
<text text-anchor="middle" x="663.16" y="-976.14" font-family="Times,serif" font-size="14.00" fill="#ffffff">Linkin Park</text>
</a>
</g>
</g>
<!-- Depeche Mode&#45;&gt;Linkin Park -->
<g id="edge20" class="edge">
<title>Depeche Mode&#45;&gt;Linkin Park</title>
<path fill="none" stroke="black" d="M826.31,-961.52C795.22,-965.27 757.66,-969.8 726.42,-973.56"/>
<polygon fill="black" stroke="black" points="726.23,-970.06 716.72,-974.73 727.06,-977.01 726.23,-970.06"/>
</g>
<!-- Marilyn Manson -->
<g id="node22" class="node">
<title>Marilyn Manson</title>
<g id="a_node22"><a xlink:href="https://en.wikipedia.org/wiki/Marilyn_Manson" xlink:title="Marilyn Manson">
<ellipse fill="#00ffe5" stroke="black" cx="551.33" cy="-813.92" rx="73.87" ry="18"/>
<text text-anchor="middle" x="551.33" y="-808.87" font-family="Times,serif" font-size="14.00" fill="#000000">Marilyn Manson</text>
</a>
</g>
</g>
<!-- Depeche Mode&#45;&gt;Marilyn Manson -->
<g id="edge21" class="edge">
<title>Depeche Mode&#45;&gt;Marilyn Manson</title>
<path fill="none" stroke="black" d="M851.43,-938.63C790.21,-913.19 667.97,-862.39 599.91,-834.11"/>
<polygon fill="black" stroke="black" points="601.44,-830.95 590.86,-830.35 598.75,-837.42 601.44,-830.95"/>
</g>
<!-- Nine Inch Nails -->
<g id="node23" class="node">
<title>Nine Inch Nails</title>
<g id="a_node23"><a xlink:href="https://en.wikipedia.org/wiki/Nine_Inch_Nails" xlink:title="Nine Inch Nails">
<ellipse fill="#00ffcb" stroke="black" cx="929.03" cy="-1126.94" rx="69.78" ry="18"/>
<text text-anchor="middle" x="929.03" y="-1121.89" font-family="Times,serif" font-size="14.00" fill="#000000">Nine Inch Nails</text>
</a>
</g>
</g>
<!-- Depeche Mode&#45;&gt;Nine Inch Nails -->
<g id="edge22" class="edge">
<title>Depeche Mode&#45;&gt;Nine Inch Nails</title>
<path fill="none" stroke="black" d="M892.74,-972.21C899.72,-1001.96 913.65,-1061.35 922.08,-1097.28"/>
<polygon fill="black" stroke="black" points="918.67,-1098.08 924.36,-1107.01 925.48,-1096.48 918.67,-1098.08"/>
</g>
<!-- Rammstein -->
<g id="node24" class="node">
<title>Rammstein</title>
<g id="a_node24"><a xlink:href="https://en.wikipedia.org/wiki/Rammstein" xlink:title="Rammstein">
<ellipse fill="#0099ff" stroke="black" cx="858.23" cy="-1257.56" rx="53.91" ry="18"/>
<text text-anchor="middle" x="858.23" y="-1252.51" font-family="Times,serif" font-size="14.00" fill="#ffffff">Rammstein</text>
</a>
</g>
</g>
<!-- Depeche Mode&#45;&gt;Rammstein -->
<g id="edge23" class="edge">
<title>Depeche Mode&#45;&gt;Rammstein</title>
<path fill="none" stroke="black" d="M886.67,-972.11C881.64,-1022.6 867.4,-1165.49 861.19,-1227.84"/>
<polygon fill="black" stroke="black" points="857.72,-1227.39 860.21,-1237.68 864.69,-1228.08 857.72,-1227.39"/>
</g>
<!-- Dead Kennedys -->
<g id="node19" class="node">
<title>Dead Kennedys</title>
<g id="a_node19"><a xlink:href="https://en.wikipedia.org/wiki/Dead_Kennedys" xlink:title="Dead Kennedys">
<ellipse fill="#33ff00" stroke="black" cx="962.63" cy="-353.52" rx="69.78" ry="18"/>
<text text-anchor="middle" x="962.63" y="-348.47" font-family="Times,serif" font-size="14.00" fill="#000000">Dead Kennedys</text>
</a>
</g>
</g>
<!-- Dead Kennedys&#45;&gt;System of a Down -->
<g id="edge13" class="edge">
<title>Dead Kennedys&#45;&gt;System of a Down</title>
<path fill="none" stroke="black" d="M955.23,-371.88C937.88,-414.92 894.5,-522.53 873.58,-574.42"/>
<polygon fill="black" stroke="black" points="870.42,-572.9 869.92,-583.49 876.91,-575.52 870.42,-572.9"/>
</g>
<!-- Def Leppard -->
<g id="node20" class="node">
<title>Def Leppard</title>
<g id="a_node20"><a xlink:href="https://en.wikipedia.org/wiki/Def_Leppard" xlink:title="Def Leppard">
<ellipse fill="#65ff00" stroke="black" cx="590.11" cy="-543.61" rx="58" ry="18"/>
<text text-anchor="middle" x="590.11" y="-538.56" font-family="Times,serif" font-size="14.00" fill="#000000">Def Leppard</text>
</a>
</g>
</g>
<!-- Def Leppard&#45;&gt;System of a Down -->
<g id="edge14" class="edge">
<title>Def Leppard&#45;&gt;System of a Down</title>
<path fill="none" stroke="black" d="M638.08,-554.14C680.93,-563.55 744.21,-577.44 792.56,-588.05"/>
<polygon fill="black" stroke="black" points="791.58,-591.42 802.1,-590.15 793.08,-584.58 791.58,-591.42"/>
</g>
<!-- Def Leppard&#45;&gt;Avenged Sevenfold -->
<g id="edge15" class="edge">
<title>Def Leppard&#45;&gt;Avenged Sevenfold</title>
<path fill="none" stroke="black" d="M533.98,-548.68C513.05,-550.58 488.74,-552.77 465.57,-554.87"/>
<polygon fill="black" stroke="black" points="465.46,-551.36 455.82,-555.75 466.09,-558.33 465.46,-551.36"/>
</g>
<!-- Marilyn Manson&#45;&gt;Avenged Sevenfold -->
<g id="edge35" class="edge">
<title>Marilyn Manson&#45;&gt;Avenged Sevenfold</title>
<path fill="none" stroke="black" d="M538.75,-795.87C508.51,-752.46 431.59,-642.04 395.59,-590.37"/>
<polygon fill="black" stroke="black" points="398.61,-588.59 390.03,-582.38 392.87,-592.59 398.61,-588.59"/>
</g>
<!-- Faith No More -->
<g id="node25" class="node">
<title>Faith No More</title>
<g id="a_node25"><a xlink:href="https://en.wikipedia.org/wiki/Faith_No_More" xlink:title="Faith No More">
<ellipse fill="#00ff4c" stroke="black" cx="281.41" cy="-1282.98" rx="66.71" ry="18"/>
<text text-anchor="middle" x="281.41" y="-1277.93" font-family="Times,serif" font-size="14.00" fill="#000000">Faith No More</text>
</a>
</g>
</g>
<!-- Faith No More&#45;&gt;Deftones -->
<g id="edge24" class="edge">
<title>Faith No More&#45;&gt;Deftones</title>
<path fill="none" stroke="black" d="M296.34,-1265.22C333.95,-1220.47 432.72,-1102.94 476.81,-1050.49"/>
<polygon fill="black" stroke="black" points="479.4,-1052.84 483.16,-1042.94 474.04,-1048.34 479.4,-1052.84"/>
</g>
<!-- Interpol -->
<g id="node26" class="node">
<title>Interpol</title>
<g id="a_node26"><a xlink:href="https://en.wikipedia.org/wiki/Interpol_(band)" xlink:title="Interpol">
<ellipse fill="#004cff" stroke="black" cx="1506.42" cy="-792.66" rx="40.09" ry="18"/>
<text text-anchor="middle" x="1506.42" y="-787.61" font-family="Times,serif" font-size="14.00" fill="#ffffff">Interpol</text>
</a>
</g>
</g>
<!-- Iron Maiden -->
<g id="node27" class="node">
<title>Iron Maiden</title>
<g id="a_node27"><a xlink:href="https://en.wikipedia.org/wiki/Iron_Maiden" xlink:title="Iron Maiden">
<ellipse fill="#7fff00" stroke="black" cx="57.49" cy="-88.65" rx="57.49" ry="18"/>
<text text-anchor="middle" x="57.49" y="-83.6" font-family="Times,serif" font-size="14.00" fill="#000000">Iron Maiden</text>
</a>
</g>
</g>
<!-- Metallica -->
<g id="node28" class="node">
<title>Metallica</title>
<g id="a_node28"><a xlink:href="https://en.wikipedia.org/wiki/Metallica" xlink:title="Metallica">
<ellipse fill="#00ff19" stroke="black" cx="254.99" cy="-279.83" rx="46.23" ry="18"/>
<text text-anchor="middle" x="254.99" y="-274.78" font-family="Times,serif" font-size="14.00" fill="#000000">Metallica</text>
</a>
</g>
</g>
<!-- Iron Maiden&#45;&gt;Metallica -->
<g id="edge25" class="edge">
<title>Iron Maiden&#45;&gt;Metallica</title>
<path fill="none" stroke="black" d="M75.37,-105.96C110.56,-140.02 188.93,-215.88 229.52,-255.18"/>
<polygon fill="black" stroke="black" points="226.87,-257.49 236.49,-261.93 231.74,-252.46 226.87,-257.49"/>
</g>
<!-- Metallica&#45;&gt;Avenged Sevenfold -->
<g id="edge37" class="edge">
<title>Metallica&#45;&gt;Avenged Sevenfold</title>
<path fill="none" stroke="black" d="M262.77,-297.97C283.34,-345.89 339.24,-476.16 364.17,-534.27"/>
<polygon fill="black" stroke="black" points="360.83,-535.36 367.99,-543.17 367.26,-532.6 360.83,-535.36"/>
</g>
<!-- Metallica&#45;&gt;Black Veil Brides -->
<g id="edge36" class="edge">
<title>Metallica&#45;&gt;Black Veil Brides</title>
<path fill="none" stroke="black" d="M244.04,-297.52C222.57,-332.2 174.78,-409.39 148.96,-451.08"/>
<polygon fill="black" stroke="black" points="145.99,-449.23 143.7,-459.58 151.94,-452.92 145.99,-449.23"/>
</g>
<!-- Joy Division -->
<g id="node29" class="node">
<title>Joy Division</title>
<g id="a_node29"><a xlink:href="https://en.wikipedia.org/wiki/Joy_Division" xlink:title="Joy Division">
<ellipse fill="#65ff00" stroke="black" cx="1287.53" cy="-1041.96" rx="58" ry="18"/>
<text text-anchor="middle" x="1287.53" y="-1036.91" font-family="Times,serif" font-size="14.00" fill="#000000">Joy Division</text>
</a>
</g>
</g>
<!-- My Bloody Valentine -->
<g id="node30" class="node">
<title>My Bloody Valentine</title>
<g id="a_node30"><a xlink:href="https://en.wikipedia.org/wiki/My_Bloody_Valentine_(band)" xlink:title="My Bloody Valentine">
<ellipse fill="#00ff4c" stroke="black" cx="1213.44" cy="-1412.33" rx="90.76" ry="18"/>
<text text-anchor="middle" x="1213.44" y="-1407.28" font-family="Times,serif" font-size="14.00" fill="#000000">My Bloody Valentine</text>
</a>
</g>
</g>
<!-- Joy Division&#45;&gt;My Bloody Valentine -->
<g id="edge26" class="edge">
<title>Joy Division&#45;&gt;My Bloody Valentine</title>
<path fill="none" stroke="black" d="M1283.85,-1060.33C1271.9,-1120.06 1234.07,-1309.17 1219.37,-1382.69"/>
<polygon fill="black" stroke="black" points="1215.96,-1381.87 1217.43,-1392.37 1222.83,-1383.25 1215.96,-1381.87"/>
</g>
<!-- New Order -->
<g id="node31" class="node">
<title>New Order</title>
<g id="a_node31"><a xlink:href="https://en.wikipedia.org/wiki/New_Order" xlink:title="New Order">
<ellipse fill="#00ff00" stroke="black" cx="1174.59" cy="-640.19" rx="52.38" ry="18"/>
<text text-anchor="middle" x="1174.59" y="-635.14" font-family="Times,serif" font-size="14.00" fill="#000000">New Order</text>
</a>
</g>
</g>
<!-- Joy Division&#45;&gt;New Order -->
<g id="edge27" class="edge">
<title>Joy Division&#45;&gt;New Order</title>
<path fill="none" stroke="black" d="M1282.38,-1023.66C1264.44,-959.85 1204.59,-746.9 1182.7,-669.03"/>
<polygon fill="black" stroke="black" points="1186.12,-668.28 1180.05,-659.6 1179.38,-670.17 1186.12,-668.28"/>
</g>
<!-- the Cure -->
<g id="node32" class="node">
<title>the Cure</title>
<g id="a_node32"><a xlink:href="https://en.wikipedia.org/wiki/The_Cure" xlink:title="the Cure">
<ellipse fill="#33ff00" stroke="black" cx="1223.91" cy="-927.25" rx="42.65" ry="18"/>
<text text-anchor="middle" x="1223.91" y="-922.2" font-family="Times,serif" font-size="14.00" fill="#000000">the Cure</text>
</a>
</g>
</g>
<!-- Joy Division&#45;&gt;the Cure -->
<g id="edge28" class="edge">
<title>Joy Division&#45;&gt;the Cure</title>
<path fill="none" stroke="black" d="M1277.45,-1023.79C1267.15,-1005.22 1251.03,-976.16 1239.17,-954.77"/>
<polygon fill="black" stroke="black" points="1242.38,-953.34 1234.46,-946.29 1236.25,-956.73 1242.38,-953.34"/>
</g>
<!-- New Order&#45;&gt;System of a Down -->
<g id="edge41" class="edge">
<title>New Order&#45;&gt;System of a Down</title>
<path fill="none" stroke="black" d="M1124.71,-634.3C1076.38,-628.59 1002.21,-619.84 944.98,-613.08"/>
<polygon fill="black" stroke="black" points="945.61,-609.63 935.27,-611.94 944.79,-616.59 945.61,-609.63"/>
</g>
<!-- New Order&#45;&gt;Arcade Fire -->
<g id="edge38" class="edge">
<title>New Order&#45;&gt;Arcade Fire</title>
<path fill="none" stroke="black" d="M1160.67,-657.86C1138.7,-685.74 1095.83,-740.15 1070.08,-772.85"/>
<polygon fill="black" stroke="black" points="1067.36,-770.64 1063.92,-780.66 1072.86,-774.97 1067.36,-770.64"/>
</g>
<!-- New Order&#45;&gt;Chvrches -->
<g id="edge39" class="edge">
<title>New Order&#45;&gt;Chvrches</title>
<path fill="none" stroke="black" d="M1225.78,-644.66C1245.65,-646.39 1268.47,-648.39 1288.81,-650.16"/>
<polygon fill="black" stroke="black" points="1288.36,-653.64 1298.63,-651.02 1288.97,-646.66 1288.36,-653.64"/>
</g>
<!-- LCD Soundsystem -->
<g id="node35" class="node">
<title>LCD Soundsystem</title>
<g id="a_node35"><a xlink:href="https://en.wikipedia.org/wiki/LCD_Soundsystem" xlink:title="LCD Soundsystem">
<ellipse fill="#3200ff" stroke="black" cx="1448.12" cy="-444.64" rx="81.55" ry="18"/>
<text text-anchor="middle" x="1448.12" y="-439.59" font-family="Times,serif" font-size="14.00" fill="#ffffff">LCD Soundsystem</text>
</a>
</g>
</g>
<!-- New Order&#45;&gt;LCD Soundsystem -->
<g id="edge40" class="edge">
<title>New Order&#45;&gt;LCD Soundsystem</title>
<path fill="none" stroke="black" d="M1197.44,-623.85C1245.63,-589.4 1357.85,-509.17 1414.35,-468.78"/>
<polygon fill="black" stroke="black" points="1416.24,-471.73 1422.34,-463.06 1412.17,-466.03 1416.24,-471.73"/>
</g>
<!-- The Smashing Pumpkins -->
<g id="node37" class="node">
<title>The Smashing Pumpkins</title>
<g id="a_node37"><a xlink:href="https://en.wikipedia.org/wiki/The_Smashing_Pumpkins" xlink:title="The Smashing Pumpkins">
<ellipse fill="#00ffcb" stroke="black" cx="1356.76" cy="-726.87" rx="104.58" ry="18"/>
<text text-anchor="middle" x="1356.76" y="-721.82" font-family="Times,serif" font-size="14.00" fill="#000000">The Smashing Pumpkins</text>
</a>
</g>
</g>
<!-- New Order&#45;&gt;The Smashing Pumpkins -->
<g id="edge42" class="edge">
<title>New Order&#45;&gt;The Smashing Pumpkins</title>
<path fill="none" stroke="black" d="M1205.91,-655.09C1234.64,-668.76 1277.57,-689.19 1310.3,-704.77"/>
<polygon fill="black" stroke="black" points="1308.64,-707.85 1319.17,-708.99 1311.64,-701.53 1308.64,-707.85"/>
</g>
<!-- the Cure&#45;&gt;Chvrches -->
<g id="edge68" class="edge">
<title>the Cure&#45;&gt;Chvrches</title>
<path fill="none" stroke="black" d="M1231.86,-909.39C1252.47,-863.16 1307.69,-739.27 1332.65,-683.27"/>
<polygon fill="black" stroke="black" points="1335.73,-684.95 1336.61,-674.4 1329.34,-682.1 1335.73,-684.95"/>
</g>
<!-- the Cure&#45;&gt;Depeche Mode -->
<g id="edge69" class="edge">
<title>the Cure&#45;&gt;Depeche Mode</title>
<path fill="none" stroke="black" d="M1181.76,-930.62C1127.54,-934.94 1032.34,-942.54 965.13,-947.91"/>
<polygon fill="black" stroke="black" points="964.96,-944.41 955.27,-948.7 965.51,-951.39 964.96,-944.41"/>
</g>
<!-- the Cure&#45;&gt;Interpol -->
<g id="edge70" class="edge">
<title>the Cure&#45;&gt;Interpol</title>
<path fill="none" stroke="black" d="M1252.55,-913.61C1303.79,-889.19 1411.13,-838.06 1468.44,-810.75"/>
<polygon fill="black" stroke="black" points="1469.65,-814.05 1477.17,-806.59 1466.64,-807.73 1469.65,-814.05"/>
</g>
<!-- the Cure&#45;&gt;The Smashing Pumpkins -->
<g id="edge73" class="edge">
<title>the Cure&#45;&gt;The Smashing Pumpkins</title>
<path fill="none" stroke="black" d="M1235.7,-909.47C1258.87,-874.52 1310.51,-796.63 1338.26,-754.77"/>
<polygon fill="black" stroke="black" points="1341.17,-756.72 1343.77,-746.46 1335.33,-752.86 1341.17,-756.72"/>
</g>
<!-- Slowdive -->
<g id="node46" class="node">
<title>Slowdive</title>
<g id="a_node46"><a xlink:href="https://en.wikipedia.org/wiki/Slowdive" xlink:title="Slowdive">
<ellipse fill="#00ffe5" stroke="black" cx="1381.72" cy="-1135.98" rx="45.72" ry="18"/>
<text text-anchor="middle" x="1381.72" y="-1130.93" font-family="Times,serif" font-size="14.00" fill="#000000">Slowdive</text>
</a>
</g>
</g>
<!-- the Cure&#45;&gt;Slowdive -->
<g id="edge71" class="edge">
<title>the Cure&#45;&gt;Slowdive</title>
<path fill="none" stroke="black" d="M1237.09,-944.69C1264.71,-981.22 1328.79,-1065.97 1361.59,-1109.36"/>
<polygon fill="black" stroke="black" points="1358.73,-1111.38 1367.55,-1117.24 1364.31,-1107.16 1358.73,-1111.38"/>
</g>
<!-- The Killers -->
<g id="node52" class="node">
<title>The Killers</title>
<g id="a_node52"><a xlink:href="https://en.wikipedia.org/wiki/The_Killers" xlink:title="The Killers">
<ellipse fill="#1900ff" stroke="black" cx="1521.14" cy="-963.98" rx="52.89" ry="18"/>
<text text-anchor="middle" x="1521.14" y="-958.93" font-family="Times,serif" font-size="14.00" fill="#ffffff">The Killers</text>
</a>
</g>
</g>
<!-- the Cure&#45;&gt;The Killers -->
<g id="edge72" class="edge">
<title>the Cure&#45;&gt;The Killers</title>
<path fill="none" stroke="black" d="M1265.23,-932.36C1315.71,-938.59 1401.53,-949.2 1459.73,-956.39"/>
<polygon fill="black" stroke="black" points="1459.13,-959.84 1469.48,-957.6 1459.99,-952.9 1459.13,-959.84"/>
</g>
<!-- Kiss -->
<g id="node33" class="node">
<title>Kiss</title>
<g id="a_node33"><a xlink:href="https://en.wikipedia.org/wiki/Kiss_(band)" xlink:title="Kiss">
<ellipse fill="#b2ff00" stroke="black" cx="96.12" cy="-642.2" rx="27.3" ry="18"/>
<text text-anchor="middle" x="96.12" y="-637.15" font-family="Times,serif" font-size="14.00" fill="#000000">Kiss</text>
</a>
</g>
</g>
<!-- Kiss&#45;&gt;Avenged Sevenfold -->
<g id="edge29" class="edge">
<title>Kiss&#45;&gt;Avenged Sevenfold</title>
<path fill="none" stroke="black" d="M121.49,-635.03C164.57,-622.84 253.22,-597.77 313.76,-580.65"/>
<polygon fill="black" stroke="black" points="314.6,-584.05 323.27,-577.96 312.69,-577.32 314.6,-584.05"/>
</g>
<!-- Kraftwerk -->
<g id="node34" class="node">
<title>Kraftwerk</title>
<g id="a_node34"><a xlink:href="https://en.wikipedia.org/wiki/Kraftwerk" xlink:title="Kraftwerk">
<ellipse fill="#ffff00" stroke="black" cx="988.85" cy="-747.25" rx="48.79" ry="18"/>
<text text-anchor="middle" x="988.85" y="-742.2" font-family="Times,serif" font-size="14.00" fill="#000000">Kraftwerk</text>
</a>
</g>
</g>
<!-- Kraftwerk&#45;&gt;Depeche Mode -->
<g id="edge30" class="edge">
<title>Kraftwerk&#45;&gt;Depeche Mode</title>
<path fill="none" stroke="black" d="M980.12,-765.23C962.62,-801.29 923.14,-882.62 902.17,-925.82"/>
<polygon fill="black" stroke="black" points="899.14,-924.05 897.92,-934.57 905.43,-927.1 899.14,-924.05"/>
</g>
<!-- Kraftwerk&#45;&gt;New Order -->
<g id="edge31" class="edge">
<title>Kraftwerk&#45;&gt;New Order</title>
<path fill="none" stroke="black" d="M1015.47,-731.91C1047.56,-713.41 1101.67,-682.22 1137.76,-661.42"/>
<polygon fill="black" stroke="black" points="1139.2,-664.63 1146.11,-656.6 1135.7,-658.56 1139.2,-664.63"/>
</g>
<!-- Led Zeppelin -->
<g id="node36" class="node">
<title>Led Zeppelin</title>
<g id="a_node36"><a xlink:href="https://en.wikipedia.org/wiki/Led_Zeppelin" xlink:title="Led Zeppelin">
<ellipse fill="#ffcc00" stroke="black" cx="602.36" cy="-437.29" rx="60.56" ry="18"/>
<text text-anchor="middle" x="602.36" y="-432.24" font-family="Times,serif" font-size="14.00" fill="#000000">Led Zeppelin</text>
</a>
</g>
</g>
<!-- Led Zeppelin&#45;&gt;System of a Down -->
<g id="edge34" class="edge">
<title>Led Zeppelin&#45;&gt;System of a Down</title>
<path fill="none" stroke="black" d="M628.2,-453.81C674.68,-483.53 772.48,-546.08 825.66,-580.08"/>
<polygon fill="black" stroke="black" points="823.46,-582.83 833.77,-585.27 827.23,-576.93 823.46,-582.83"/>
</g>
<!-- Led Zeppelin&#45;&gt;Avenged Sevenfold -->
<g id="edge32" class="edge">
<title>Led Zeppelin&#45;&gt;Avenged Sevenfold</title>
<path fill="none" stroke="black" d="M573.29,-453.45C533.6,-475.52 462.26,-515.2 417.24,-540.24"/>
<polygon fill="black" stroke="black" points="415.59,-537.15 408.55,-545.07 418.99,-543.27 415.59,-537.15"/>
</g>
<!-- Led Zeppelin&#45;&gt;Soundgarden -->
<g id="edge33" class="edge">
<title>Led Zeppelin&#45;&gt;Soundgarden</title>
<path fill="none" stroke="black" d="M602.14,-419.05C601.54,-367.99 599.84,-223.27 599.1,-160.6"/>
<polygon fill="black" stroke="black" points="602.6,-160.69 598.98,-150.73 595.6,-160.77 602.6,-160.69"/>
</g>
<!-- New York Dolls -->
<g id="node38" class="node">
<title>New York Dolls</title>
<g id="a_node38"><a xlink:href="https://en.wikipedia.org/wiki/New_York_Dolls" xlink:title="New York Dolls">
<ellipse fill="#e5ff00" stroke="black" cx="1632.22" cy="-1531.46" rx="70.8" ry="18"/>
<text text-anchor="middle" x="1632.22" y="-1526.41" font-family="Times,serif" font-size="14.00" fill="#000000">New York Dolls</text>
</a>
</g>
</g>
<!-- The Smiths -->
<g id="node39" class="node">
<title>The Smiths</title>
<g id="a_node39"><a xlink:href="https://en.wikipedia.org/wiki/The_Smiths" xlink:title="The Smiths">
<ellipse fill="#00ff32" stroke="black" cx="1511.23" cy="-1256.7" rx="53.91" ry="18"/>
<text text-anchor="middle" x="1511.23" y="-1251.65" font-family="Times,serif" font-size="14.00" fill="#000000">The Smiths</text>
</a>
</g>
</g>
<!-- New York Dolls&#45;&gt;The Smiths -->
<g id="edge43" class="edge">
<title>New York Dolls&#45;&gt;The Smiths</title>
<path fill="none" stroke="black" d="M1624.29,-1513.44C1603.73,-1466.76 1548.66,-1341.68 1523.76,-1285.14"/>
<polygon fill="black" stroke="black" points="1527.05,-1283.92 1519.81,-1276.18 1520.64,-1286.74 1527.05,-1283.92"/>
</g>
<!-- The Smiths&#45;&gt;Arctic Monkeys -->
<g id="edge61" class="edge">
<title>The Smiths&#45;&gt;Arctic Monkeys</title>
<path fill="none" stroke="black" d="M1539.17,-1272.37C1577.13,-1293.66 1645.22,-1331.84 1688.52,-1356.13"/>
<polygon fill="black" stroke="black" points="1686.67,-1359.11 1697.11,-1360.95 1690.1,-1353 1686.67,-1359.11"/>
</g>
<!-- The Smiths&#45;&gt;Belle and Sebastian -->
<g id="edge62" class="edge">
<title>The Smiths&#45;&gt;Belle and Sebastian</title>
<path fill="none" stroke="black" d="M1535.85,-1240.35C1588.47,-1205.41 1712.1,-1123.32 1773.3,-1082.69"/>
<polygon fill="black" stroke="black" points="1774.91,-1085.82 1781.31,-1077.37 1771.04,-1079.99 1774.91,-1085.82"/>
</g>
<!-- The Strokes -->
<g id="node53" class="node">
<title>The Strokes</title>
<g id="a_node53"><a xlink:href="https://en.wikipedia.org/wiki/The_Strokes" xlink:title="The Strokes">
<ellipse fill="#0033ff" stroke="black" cx="1708.73" cy="-1150.67" rx="55.45" ry="18"/>
<text text-anchor="middle" x="1708.73" y="-1145.62" font-family="Times,serif" font-size="14.00" fill="#ffffff">The Strokes</text>
</a>
</g>
</g>
<!-- The Smiths&#45;&gt;The Strokes -->
<g id="edge63" class="edge">
<title>The Smiths&#45;&gt;The Strokes</title>
<path fill="none" stroke="black" d="M1539.95,-1241.28C1574.23,-1222.88 1631.69,-1192.03 1669.91,-1171.52"/>
<polygon fill="black" stroke="black" points="1671.17,-1174.81 1678.33,-1167 1667.86,-1168.64 1671.17,-1174.81"/>
</g>
<!-- Orchestral Manoeuvres in the Dark -->
<g id="node40" class="node">
<title>Orchestral Manoeuvres in the Dark</title>
<g id="a_node40"><a xlink:href="https://en.wikipedia.org/wiki/Orchestral_Manoeuvres_in_the_Dark" xlink:title="Orchestral Manoeuvres in the Dark">
<ellipse fill="#33ff00" stroke="black" cx="708.61" cy="-1123.34" rx="142.45" ry="18"/>
<text text-anchor="middle" x="708.61" y="-1118.29" font-family="Times,serif" font-size="14.00" fill="#000000">Orchestral Manoeuvres in the Dark</text>
</a>
</g>
</g>
<!-- Orchestral Manoeuvres in the Dark&#45;&gt;Depeche Mode -->
<g id="edge44" class="edge">
<title>Orchestral Manoeuvres in the Dark&#45;&gt;Depeche Mode</title>
<path fill="none" stroke="black" d="M727.85,-1105.22C759.99,-1074.98 824.65,-1014.11 861.37,-979.54"/>
<polygon fill="black" stroke="black" points="863.65,-982.2 868.53,-972.8 858.85,-977.11 863.65,-982.2"/>
</g>
<!-- Public Enemy -->
<g id="node41" class="node">
<title>Public Enemy</title>
<g id="a_node41"><a xlink:href="https://en.wikipedia.org/wiki/Public_Enemy" xlink:title="Public Enemy">
<ellipse fill="#00ff7f" stroke="black" cx="997.87" cy="-1687.61" rx="63.63" ry="18"/>
<text text-anchor="middle" x="997.87" y="-1682.56" font-family="Times,serif" font-size="14.00" fill="#000000">Public Enemy</text>
</a>
</g>
</g>
<!-- Public Enemy&#45;&gt;My Bloody Valentine -->
<g id="edge45" class="edge">
<title>Public Enemy&#45;&gt;My Bloody Valentine</title>
<path fill="none" stroke="black" d="M1011.68,-1669.97C1048.31,-1623.19 1148.13,-1495.72 1192.13,-1439.54"/>
<polygon fill="black" stroke="black" points="1194.84,-1441.76 1198.25,-1431.73 1189.33,-1437.44 1194.84,-1441.76"/>
</g>
<!-- Radiohead -->
<g id="node42" class="node">
<title>Radiohead</title>
<g id="a_node42"><a xlink:href="https://en.wikipedia.org/wiki/Radiohead" xlink:title="Radiohead">
<ellipse fill="#00ff7f" stroke="black" cx="1064.21" cy="-1418.34" rx="50.33" ry="18"/>
<text text-anchor="middle" x="1064.21" y="-1413.29" font-family="Times,serif" font-size="14.00" fill="#000000">Radiohead</text>
</a>
</g>
</g>
<!-- Rolling Stones -->
<g id="node43" class="node">
<title>Rolling Stones</title>
<g id="a_node43"><a xlink:href="https://en.wikipedia.org/wiki/The_Rolling_Stones" xlink:title="Rolling Stones">
<ellipse fill="#ff3200" stroke="black" cx="116.51" cy="-755.04" rx="65.68" ry="18"/>
<text text-anchor="middle" x="116.51" y="-749.99" font-family="Times,serif" font-size="14.00" fill="#000000">Rolling Stones</text>
</a>
</g>
</g>
<!-- Rolling Stones&#45;&gt;Avenged Sevenfold -->
<g id="edge46" class="edge">
<title>Rolling Stones&#45;&gt;Avenged Sevenfold</title>
<path fill="none" stroke="black" d="M139.58,-737.99C185.88,-703.77 290.26,-626.63 343.65,-587.17"/>
<polygon fill="black" stroke="black" points="345.52,-590.14 351.48,-581.38 341.36,-584.51 345.52,-590.14"/>
</g>
<!-- Roxy Music -->
<g id="node44" class="node">
<title>Roxy Music</title>
<g id="a_node44"><a xlink:href="https://en.wikipedia.org/wiki/Roxy_Music" xlink:title="Roxy Music">
<ellipse fill="#ffff00" stroke="black" cx="988.35" cy="-1174.89" rx="56.98" ry="18"/>
<text text-anchor="middle" x="988.35" y="-1169.84" font-family="Times,serif" font-size="14.00" fill="#000000">Roxy Music</text>
</a>
</g>
</g>
<!-- Roxy Music&#45;&gt;Depeche Mode -->
<g id="edge47" class="edge">
<title>Roxy Music&#45;&gt;Depeche Mode</title>
<path fill="none" stroke="black" d="M980.17,-1156.82C962.84,-1118.48 922.25,-1028.73 901.38,-982.57"/>
<polygon fill="black" stroke="black" points="904.69,-981.4 897.38,-973.73 898.31,-984.29 904.69,-981.4"/>
</g>
<!-- Siouxsie and the Banshees -->
<g id="node45" class="node">
<title>Siouxsie and the Banshees</title>
<g id="a_node45"><a xlink:href="https://en.wikipedia.org/wiki/Siouxsie_and_the_Banshees" xlink:title="Siouxsie and the Banshees">
<ellipse fill="#65ff00" stroke="black" cx="1179.86" cy="-1160.51" rx="109.7" ry="18"/>
<text text-anchor="middle" x="1179.86" y="-1155.46" font-family="Times,serif" font-size="14.00" fill="#000000">Siouxsie and the Banshees</text>
</a>
</g>
</g>
<!-- Siouxsie and the Banshees&#45;&gt;Depeche Mode -->
<g id="edge48" class="edge">
<title>Siouxsie and the Banshees&#45;&gt;Depeche Mode</title>
<path fill="none" stroke="black" d="M1154.51,-1142.55C1101.91,-1105.28 980.93,-1019.55 921.98,-977.77"/>
<polygon fill="black" stroke="black" points="924.15,-975.02 913.97,-972.1 920.1,-980.73 924.15,-975.02"/>
</g>
<!-- Siouxsie and the Banshees&#45;&gt;Joy Division -->
<g id="edge49" class="edge">
<title>Siouxsie and the Banshees&#45;&gt;Joy Division</title>
<path fill="none" stroke="black" d="M1196.44,-1142.25C1214.46,-1122.41 1243.4,-1090.55 1263.81,-1068.07"/>
<polygon fill="black" stroke="black" points="1266.3,-1070.54 1270.43,-1060.79 1261.12,-1065.84 1266.3,-1070.54"/>
</g>
<!-- Siouxsie and the Banshees&#45;&gt;My Bloody Valentine -->
<g id="edge50" class="edge">
<title>Siouxsie and the Banshees&#45;&gt;My Bloody Valentine</title>
<path fill="none" stroke="black" d="M1182.27,-1178.62C1188.01,-1221.62 1202.49,-1330.19 1209.5,-1382.82"/>
<polygon fill="black" stroke="black" points="1206.01,-1383.09 1210.8,-1392.54 1212.95,-1382.17 1206.01,-1383.09"/>
</g>
<!-- Siouxsie and the Banshees&#45;&gt;the Cure -->
<g id="edge54" class="edge">
<title>Siouxsie and the Banshees&#45;&gt;the Cure</title>
<path fill="none" stroke="black" d="M1183.31,-1142.21C1190.92,-1101.93 1209.17,-1005.31 1218.38,-956.51"/>
<polygon fill="black" stroke="black" points="1221.77,-957.43 1220.18,-946.96 1214.89,-956.13 1221.77,-957.43"/>
</g>
<!-- Siouxsie and the Banshees&#45;&gt;The Smiths -->
<g id="edge53" class="edge">
<title>Siouxsie and the Banshees&#45;&gt;The Smiths</title>
<path fill="none" stroke="black" d="M1234.95,-1176.5C1297.32,-1194.61 1398.18,-1223.88 1459.24,-1241.6"/>
<polygon fill="black" stroke="black" points="1458.13,-1244.93 1468.71,-1244.35 1460.08,-1238.2 1458.13,-1244.93"/>
</g>
<!-- Siouxsie and the Banshees&#45;&gt;Radiohead -->
<g id="edge51" class="edge">
<title>Siouxsie and the Banshees&#45;&gt;Radiohead</title>
<path fill="none" stroke="black" d="M1171.73,-1178.64C1151.9,-1222.84 1100.96,-1336.4 1077.01,-1389.79"/>
<polygon fill="black" stroke="black" points="1073.85,-1388.29 1072.95,-1398.85 1080.24,-1391.15 1073.85,-1388.29"/>
</g>
<!-- Siouxsie and the Banshees&#45;&gt;Slowdive -->
<g id="edge52" class="edge">
<title>Siouxsie and the Banshees&#45;&gt;Slowdive</title>
<path fill="none" stroke="black" d="M1268.99,-1149.68C1288.48,-1147.31 1308.57,-1144.87 1326.29,-1142.72"/>
<polygon fill="black" stroke="black" points="1326.56,-1146.21 1336.06,-1141.53 1325.71,-1139.26 1326.56,-1146.21"/>
</g>
<!-- Sparks -->
<g id="node47" class="node">
<title>Sparks</title>
<g id="a_node47"><a xlink:href="https://en.wikipedia.org/wiki/Sparks_(band)" xlink:title="Sparks">
<ellipse fill="#ff9900" stroke="black" cx="1345.1" cy="-365.45" rx="36" ry="18"/>
<text text-anchor="middle" x="1345.1" y="-360.4" font-family="Times,serif" font-size="14.00" fill="#000000">Sparks</text>
</a>
</g>
</g>
<!-- Sparks&#45;&gt;New Order -->
<g id="edge55" class="edge">
<title>Sparks&#45;&gt;New Order</title>
<path fill="none" stroke="black" d="M1334.18,-383.05C1305.25,-429.66 1226.52,-556.51 1191.63,-612.73"/>
<polygon fill="black" stroke="black" points="1188.74,-610.74 1186.44,-621.09 1194.69,-614.44 1188.74,-610.74"/>
</g>
<!-- The Birthday Party -->
<g id="node48" class="node">
<title>The Birthday Party</title>
<g id="a_node48"><a xlink:href="https://en.wikipedia.org/wiki/The_Birthday_Party_(band)" xlink:title="The Birthday Party">
<ellipse fill="#4cff00" stroke="black" cx="1300.46" cy="-1688.97" rx="82.06" ry="18"/>
<text text-anchor="middle" x="1300.46" y="-1683.92" font-family="Times,serif" font-size="14.00" fill="#000000">The Birthday Party</text>
</a>
</g>
</g>
<!-- The Birthday Party&#45;&gt;My Bloody Valentine -->
<g id="edge56" class="edge">
<title>The Birthday Party&#45;&gt;My Bloody Valentine</title>
<path fill="none" stroke="black" d="M1294.75,-1670.81C1280,-1623.92 1240.52,-1498.42 1222.56,-1441.32"/>
<polygon fill="black" stroke="black" points="1225.96,-1440.48 1219.62,-1431.99 1219.29,-1442.58 1225.96,-1440.48"/>
</g>
<!-- The Cramps -->
<g id="node49" class="node">
<title>The Cramps</title>
<g id="a_node49"><a xlink:href="https://en.wikipedia.org/wiki/The_Cramps" xlink:title="The Cramps">
<ellipse fill="#65ff00" stroke="black" cx="1461.66" cy="-1517.11" rx="56.98" ry="18"/>
<text text-anchor="middle" x="1461.66" y="-1512.06" font-family="Times,serif" font-size="14.00" fill="#000000">The Cramps</text>
</a>
</g>
</g>
<!-- The Cramps&#45;&gt;My Bloody Valentine -->
<g id="edge57" class="edge">
<title>The Cramps&#45;&gt;My Bloody Valentine</title>
<path fill="none" stroke="black" d="M1426.88,-1502.43C1384.34,-1484.47 1311.99,-1453.93 1263.47,-1433.45"/>
<polygon fill="black" stroke="black" points="1264.86,-1430.24 1254.29,-1429.57 1262.14,-1436.68 1264.86,-1430.24"/>
</g>
<!-- The Cramps&#45;&gt;The Smiths -->
<g id="edge58" class="edge">
<title>The Cramps&#45;&gt;The Smiths</title>
<path fill="none" stroke="black" d="M1465.14,-1498.79C1473.61,-1454.34 1495.3,-1340.41 1505.62,-1286.2"/>
<polygon fill="black" stroke="black" points="1509.04,-1286.95 1507.47,-1276.47 1502.16,-1285.64 1509.04,-1286.95"/>
</g>
<!-- The Cult -->
<g id="node50" class="node">
<title>The Cult</title>
<g id="a_node50"><a xlink:href="https://en.wikipedia.org/wiki/The_Cult" xlink:title="The Cult">
<ellipse fill="#00ff32" stroke="black" cx="1812.72" cy="-1263.97" rx="43.67" ry="18"/>
<text text-anchor="middle" x="1812.72" y="-1258.92" font-family="Times,serif" font-size="14.00" fill="#000000">The Cult</text>
</a>
</g>
</g>
<!-- The Cult&#45;&gt;The Smiths -->
<g id="edge59" class="edge">
<title>The Cult&#45;&gt;The Smiths</title>
<path fill="none" stroke="black" d="M1768.89,-1262.91C1718.36,-1261.69 1634.82,-1259.68 1576.61,-1258.27"/>
<polygon fill="black" stroke="black" points="1576.92,-1254.78 1566.84,-1258.04 1576.75,-1261.78 1576.92,-1254.78"/>
</g>
<!-- The Human League -->
<g id="node51" class="node">
<title>The Human League</title>
<g id="a_node51"><a xlink:href="https://en.wikipedia.org/wiki/The_Human_League" xlink:title="The Human League">
<ellipse fill="#4cff00" stroke="black" cx="472.82" cy="-1157.97" rx="85.13" ry="18"/>
<text text-anchor="middle" x="472.82" y="-1152.92" font-family="Times,serif" font-size="14.00" fill="#000000">The Human League</text>
</a>
</g>
</g>
<!-- The Human League&#45;&gt;Depeche Mode -->
<g id="edge60" class="edge">
<title>The Human League&#45;&gt;Depeche Mode</title>
<path fill="none" stroke="black" d="M507.19,-1141.11C582.56,-1104.13 762.26,-1015.96 845.18,-975.27"/>
<polygon fill="black" stroke="black" points="846.72,-978.42 854.15,-970.87 843.63,-972.13 846.72,-978.42"/>
</g>
<!-- The Strokes&#45;&gt;Arctic Monkeys -->
<g id="edge64" class="edge">
<title>The Strokes&#45;&gt;Arctic Monkeys</title>
<path fill="none" stroke="black" d="M1710.31,-1168.93C1713.68,-1208.17 1721.66,-1300.85 1725.78,-1348.71"/>
<polygon fill="black" stroke="black" points="1722.29,-1348.96 1726.64,-1358.62 1729.27,-1348.36 1722.29,-1348.96"/>
</g>
<!-- The Strokes&#45;&gt;The Killers -->
<g id="edge65" class="edge">
<title>The Strokes&#45;&gt;The Killers</title>
<path fill="none" stroke="black" d="M1691.42,-1133.44C1658.14,-1100.32 1585.11,-1027.65 1546.4,-989.11"/>
<polygon fill="black" stroke="black" points="1549.31,-987.08 1539.75,-982.5 1544.37,-992.04 1549.31,-987.08"/>
</g>
<!-- The Velvet Underground -->
<g id="node54" class="node">
<title>The Velvet Underground</title>
<g id="a_node54"><a xlink:href="https://en.wikipedia.org/wiki/The_Velvet_Underground" xlink:title="The Velvet Underground">
<ellipse fill="#ff6500" stroke="black" cx="1066.89" cy="-969.3" rx="102.53" ry="18"/>
<text text-anchor="middle" x="1066.89" y="-964.25" font-family="Times,serif" font-size="14.00" fill="#000000">The Velvet Underground</text>
</a>
</g>
</g>
<!-- The Velvet Underground&#45;&gt;Depeche Mode -->
<g id="edge66" class="edge">
<title>The Velvet Underground&#45;&gt;Depeche Mode</title>
<path fill="none" stroke="black" d="M974.02,-961.35C970.88,-961.08 967.74,-960.81 964.62,-960.54"/>
<polygon fill="black" stroke="black" points="965.22,-957.08 954.96,-959.72 964.62,-964.06 965.22,-957.08"/>
</g>
<!-- The Velvet Underground&#45;&gt;the Cure -->
<g id="edge67" class="edge">
<title>The Velvet Underground&#45;&gt;the Cure</title>
<path fill="none" stroke="black" d="M1124.02,-954C1141.26,-949.38 1159.99,-944.37 1176.52,-939.94"/>
<polygon fill="black" stroke="black" points="1177.36,-943.34 1186.11,-937.37 1175.55,-936.58 1177.36,-943.34"/>
</g>
<!-- the bomb squad -->
<g id="node55" class="node">
<title>the bomb squad</title>
<g id="a_node55"><a xlink:href="https://en.wikipedia.org/wiki/The_Bomb_Squad" xlink:title="the bomb squad">
<ellipse fill="#00ff99" stroke="black" cx="1140.02" cy="-1713.18" rx="70.29" ry="18"/>
<text text-anchor="middle" x="1140.02" y="-1708.13" font-family="Times,serif" font-size="14.00" fill="#000000">the bomb squad</text>
</a>
</g>
</g>
<!-- the bomb squad&#45;&gt;My Bloody Valentine -->
<g id="edge74" class="edge">
<title>the bomb squad&#45;&gt;My Bloody Valentine</title>
<path fill="none" stroke="black" d="M1144.51,-1694.81C1156.85,-1644.24 1191.41,-1502.62 1206.38,-1441.27"/>
<polygon fill="black" stroke="black" points="1209.69,-1442.47 1208.66,-1431.93 1202.89,-1440.81 1209.69,-1442.47"/>
</g>
</g>
</svg>
